<svg width="32" height="32" viewBox="0 0 32 32" fill="none" xmlns="http://www.w3.org/2000/svg">
<path d="M15.9433 28.6997C23.1543 28.6997 28.9999 22.8541 28.9999 15.6431C28.9999 8.43218 23.1543 2.58655 15.9433 2.58655C8.73236 2.58655 2.88672 8.43218 2.88672 15.6431C2.88672 22.8541 8.73236 28.6997 15.9433 28.6997Z" stroke="black" stroke-width="1.74868" stroke-miterlimit="10"/>
<path d="M25.3126 6.29504C25.5078 7.0655 25.6105 7.66131 25.6105 8.48312C25.6105 13.8249 21.2857 18.1497 15.944 18.1497C10.6022 18.1497 6.27734 13.8249 6.27734 8.48312C6.27734 7.96949 6.31844 7.45586 6.40062 6.96277" stroke="black" stroke-width="1.74868" stroke-miterlimit="10"/>
<path d="M6.57525 24.8372C6.38007 24.0667 6.27734 23.2655 6.27734 22.4436C6.27734 17.1018 10.6022 12.777 15.944 12.777C21.2857 12.777 25.6105 17.1018 25.6105 22.4436C25.6105 22.9573 25.5694 23.4709 25.4873 23.964" stroke="black" stroke-width="1.74868" stroke-miterlimit="10"/>
</svg>
