<svg width="32" height="32" viewBox="0 0 32 32" fill="none" xmlns="http://www.w3.org/2000/svg">
<path d="M15.5986 29.0442C22.9999 29.0442 28.9999 23.0443 28.9999 15.6429C28.9999 8.24156 22.9999 2.24158 15.5986 2.24158C8.19725 2.24158 2.19727 8.24156 2.19727 15.6429C2.19727 23.0443 8.19725 29.0442 15.5986 29.0442Z" stroke="black" stroke-width="1.79485" stroke-miterlimit="10"/>
<path d="M15.5977 29.3501C15.5977 21.9483 21.5972 15.9488 28.999 15.9488" stroke="black" stroke-width="1.79485" stroke-miterlimit="10"/>
<path d="M28.999 15.9383C21.5972 15.9383 15.5977 9.93882 15.5977 2.53699" stroke="black" stroke-width="1.79485" stroke-miterlimit="10"/>
<path d="M2.20703 15.9382C9.40853 15.9382 15.2815 21.6108 15.5978 28.728" stroke="black" stroke-width="1.79485" stroke-miterlimit="10"/>
<path d="M15.5978 1.93585C15.6084 2.13619 15.6084 2.32597 15.6084 2.52631C15.6084 9.92814 9.60887 15.9276 2.20703 15.9276" stroke="black" stroke-width="1.79485" stroke-miterlimit="10"/>
</svg>
