<svg width="53" height="14" viewBox="0 0 53 14" fill="none" xmlns="http://www.w3.org/2000/svg">
<g id="Frame 1321314407">
<g id="Group 1321314596">
<g id="Layer_1">
<g id="Group">
<path id="Vector" d="M4.06106 4.82271C4.8865 4.82271 5.59539 5.09703 6.18454 5.64413V2.23755H7.46023V11.1709H6.18454V10.5045C5.59539 11.0531 4.8881 11.3259 4.06106 11.3259C3.16856 11.3259 2.42135 11.0159 1.81464 10.396C1.21751 9.78535 0.918945 9.01042 0.918945 8.07276C0.918945 7.13509 1.21751 6.36171 1.81464 5.74952C2.41975 5.12958 3.16856 4.82116 4.06106 4.82116V4.82271ZM4.19517 6.06104C3.64754 6.06104 3.18452 6.25632 2.80932 6.64534C2.43252 7.01885 2.24413 7.49466 2.24413 8.07431C2.24413 8.65395 2.43252 9.12666 2.80932 9.51567C3.1941 9.89693 3.65552 10.0876 4.19517 10.0876C4.73483 10.0876 5.217 9.89693 5.5938 9.51567C5.9706 9.12666 6.15899 8.6462 6.15899 8.07431C6.15899 7.50241 5.9706 7.01885 5.5938 6.64534C5.217 6.25632 4.75079 6.06104 4.19517 6.06104Z" fill="#6D6D6D"/>
<path id="Vector_2" d="M8.64521 4.06035C8.49034 3.90226 8.41211 3.70698 8.41211 3.47605C8.41211 3.24512 8.49034 3.05139 8.64521 2.89175C8.80807 2.73212 9.00924 2.65308 9.24713 2.65308C9.48503 2.65308 9.6846 2.73212 9.84905 2.89175C10.0119 3.05139 10.0949 3.24512 10.0949 3.47605C10.0949 3.70698 10.0135 3.90071 9.84905 4.06035C9.6846 4.21998 9.48503 4.29902 9.24713 4.29902C9.00924 4.29902 8.80966 4.21998 8.64521 4.06035ZM9.88418 11.1711H8.60849V4.97786H9.88418V11.1711Z" fill="#6D6D6D"/>
<path id="Vector_3" d="M13.8325 4.823C14.658 4.823 15.3669 5.09732 15.956 5.64442V4.97798H17.2317V10.9573C17.2317 11.8221 16.9204 12.5459 16.2993 13.1256C15.6782 13.713 14.9246 14.0074 14.0417 14.0074C13.3871 14.0074 12.774 13.8447 12.2008 13.5192C11.6436 13.2015 11.2476 12.7846 11.0098 12.2685L12.2982 11.8996C12.4371 12.1538 12.6622 12.3615 12.9736 12.5258C13.2849 12.6885 13.6234 12.7691 13.9922 12.7691C14.5398 12.7691 15.006 12.594 15.3908 12.2453C15.7676 11.9043 15.956 11.475 15.956 10.9589V10.5063C15.3669 11.055 14.6596 11.3277 13.8325 11.3277C12.94 11.3277 12.1928 11.0178 11.5861 10.3978C10.989 9.78719 10.6904 9.01226 10.6904 8.0746C10.6904 7.13693 10.989 6.36355 11.5861 5.75136C12.1912 5.13142 12.94 4.823 13.8325 4.823ZM13.9667 6.06133C13.419 6.06133 12.956 6.25661 12.5808 6.64563C12.204 7.01914 12.0156 7.49495 12.0156 8.0746C12.0156 8.65424 12.204 9.12695 12.5808 9.51596C12.9656 9.89723 13.427 10.0879 13.9667 10.0879C14.5063 10.0879 14.9885 9.89723 15.3653 9.51596C15.7421 9.12695 15.9305 8.64649 15.9305 8.0746C15.9305 7.5027 15.7421 7.01914 15.3653 6.64563C14.9885 6.25661 14.5223 6.06133 13.9667 6.06133Z" fill="#6D6D6D"/>
<path id="Vector_4" d="M18.2009 4.06035C18.046 3.90226 17.9678 3.70698 17.9678 3.47605C17.9678 3.24512 18.046 3.05139 18.2009 2.89175C18.3637 2.73212 18.5649 2.65308 18.8028 2.65308C19.0407 2.65308 19.2403 2.73212 19.4047 2.89175C19.5676 3.05139 19.6506 3.24512 19.6506 3.47605C19.6506 3.70698 19.5692 3.90071 19.4047 4.06035C19.2403 4.21998 19.0407 4.29902 18.8028 4.29902C18.5649 4.29902 18.3653 4.21998 18.2009 4.06035ZM19.4398 11.1711H18.1642V4.97786H19.4398V11.1711Z" fill="#6D6D6D"/>
<path id="Vector_5" d="M20.126 6.06108V4.97773H21.0951V3.75024H22.3708V4.97773H24.0648V6.06108H22.3708V9.1112C22.3708 9.35762 22.4522 9.56375 22.6167 9.73114C22.7795 9.89852 22.9855 9.98066 23.2298 9.98066H24.0648V11.1725H23.1324C22.5592 11.1725 22.077 10.9943 21.6843 10.6363C21.2915 10.2627 21.0951 9.81018 21.0951 9.27858V6.06263H20.126V6.06108Z" fill="#6D6D6D"/>
<path id="Vector_6" d="M27.5738 4.82235C28.3992 4.82235 29.1081 5.09668 29.6972 5.64377V4.97734H30.9729V11.1706H29.6972V10.5041C29.1081 11.0528 28.4008 11.3255 27.5738 11.3255C26.6813 11.3255 25.934 11.0156 25.3273 10.3956C24.7302 9.78499 24.4316 9.01006 24.4316 8.0724C24.4316 7.13474 24.7302 6.36136 25.3273 5.74916C25.9324 5.12922 26.6813 4.8208 27.5738 4.8208V4.82235ZM27.7079 6.06069C27.1602 6.06069 26.6972 6.25597 26.322 6.64498C25.9452 7.0185 25.7568 7.4943 25.7568 8.07395C25.7568 8.6536 25.9452 9.1263 26.322 9.51532C26.7068 9.89658 27.1682 10.0872 27.7079 10.0872C28.2475 10.0872 28.7297 9.89658 29.1065 9.51532C29.4833 9.1263 29.6717 8.64585 29.6717 8.07395C29.6717 7.50205 29.4833 7.0185 29.1065 6.64498C28.7297 6.25597 28.2635 6.06069 27.7079 6.06069Z" fill="#6D6D6D"/>
<path id="Vector_7" d="M33.3177 11.1709H32.042V2.23755H33.3177V11.1709Z" fill="#6D6D6D"/>
<path id="Vector_8" d="M34.4567 11.1709V2.23755H35.7324V7.83563L38.1368 4.97614H39.6951L37.1917 7.96582L39.965 11.1694H38.3939L35.7308 8.096V11.1694H34.4551L34.4567 11.1709Z" fill="#6D6D6D"/>
<path id="Vector_9" d="M40.4938 4.06035C40.339 3.90226 40.2607 3.70698 40.2607 3.47605C40.2607 3.24512 40.339 3.05139 40.4938 2.89175C40.6567 2.73212 40.8579 2.65308 41.0958 2.65308C41.3337 2.65308 41.5332 2.73212 41.6977 2.89175C41.8605 3.05139 41.9436 3.24512 41.9436 3.47605C41.9436 3.70698 41.8621 3.90071 41.6977 4.06035C41.5332 4.21998 41.3337 4.29902 41.0958 4.29902C40.8579 4.29902 40.6583 4.21998 40.4938 4.06035ZM41.7328 11.1711H40.4571V4.97786H41.7328V11.1711Z" fill="#6D6D6D"/>
<path id="Vector_10" d="M42.5303 6.06108V4.97773H43.4994V3.75024H44.7751V4.97773H46.4691V6.06108H44.7751V9.1112C44.7751 9.35762 44.8565 9.56375 45.021 9.73114C45.1838 9.89852 45.3898 9.98066 45.6341 9.98066H46.4691V11.1725H45.5367C44.9635 11.1725 44.4813 10.9943 44.0886 10.6363C43.6958 10.2627 43.4994 9.81018 43.4994 9.27858V6.06263H42.5303V6.06108Z" fill="#6D6D6D"/>
</g>
</g>
<path id="Union" fill-rule="evenodd" clip-rule="evenodd" d="M49.9263 6.0329C49.4154 6.0329 48.9109 5.90892 48.4655 5.67489C48.2882 5.5819 48.1174 5.46876 47.9593 5.34167C47.2568 4.77288 46.8545 3.93751 46.8545 3.051C46.8545 1.40661 48.2324 0.0690918 49.9263 0.0690918C51.6203 0.0690918 52.9998 1.40661 52.9998 3.051C52.9998 3.91736 52.6118 4.74033 51.9349 5.30758C51.7832 5.43466 51.6187 5.5478 51.4447 5.64389C50.9833 5.89807 50.4596 6.0329 49.9279 6.0329H49.9263ZM49.9279 0.675082H49.9278L49.7593 0.680665C48.5367 0.761847 47.5586 1.71954 47.4862 2.90934C47.4834 2.9557 47.482 3.00242 47.482 3.04945C47.482 3.52981 47.6304 3.99313 47.9113 4.38985C47.8812 3.64724 48.0309 3.08121 48.1697 2.725C48.2747 2.45444 48.3735 2.30448 48.3833 2.28964L48.384 2.28847L48.3888 2.28072L48.3952 2.28692L49.1424 3.02H50.7326L51.4862 2.28072L51.491 2.28847C51.491 2.28847 51.9652 3.05255 51.9476 4.38387C52.2018 4.02438 52.3463 3.60975 52.3703 3.17731C52.3727 3.13485 52.3738 3.09222 52.3738 3.04945C52.3738 1.73986 51.2754 0.673585 49.9263 0.673538L49.9279 0.675082Z" fill="#6D6D6D"/>
</g>
</g>
</svg>
