<svg width="32" height="32" viewBox="0 0 32 32" fill="none" xmlns="http://www.w3.org/2000/svg">
<path d="M23.3035 12.0147C23.3134 12.0147 23.3234 12.0147 23.3334 12.0147C26.6471 12.0147 29.3334 14.7059 29.3334 18.0257C29.3334 21.1197 27.0001 23.6677 24.0001 24M23.3035 12.0147C23.3233 11.7947 23.3334 11.5719 23.3334 11.3468C23.3334 7.28927 20.0502 4 16.0001 4C12.1644 4 9.01652 6.95023 8.69397 10.7092M23.3035 12.0147C23.1671 13.5301 22.5715 14.9128 21.6571 16.022M8.69397 10.7092C5.31206 11.0316 2.66675 13.8852 2.66675 17.3577C2.66675 20.5889 4.95709 23.2843 8.00008 23.9031M8.69397 10.7092C8.90443 10.6892 9.11772 10.6789 9.33341 10.6789C10.8345 10.6789 12.2197 11.1759 13.3341 12.0147" stroke="#E4215C" stroke-width="2" stroke-linecap="round" stroke-linejoin="round"/>
<path d="M16.0001 28.0007V17.334M16.0001 28.0007C15.0665 28.0007 13.3221 25.3416 12.6667 24.6673M16.0001 28.0007C16.9337 28.0007 18.6781 25.3416 19.3334 24.6673" stroke="#E4215C" stroke-width="2" stroke-linecap="round" stroke-linejoin="round"/>
</svg>
