<svg width="476" height="131" viewBox="0 0 476 131" fill="none" xmlns="http://www.w3.org/2000/svg">
<path d="M14.0398 79.4433C11.2834 79.4433 8.75672 78.9839 6.45971 77.9502C4.1627 76.9166 2.32509 75.5384 0.832031 73.7008L5.42605 68.9919C6.57455 70.2552 7.95276 71.2889 9.44581 71.8631C10.9389 72.5522 12.5468 72.8968 14.2695 72.8968C15.5329 72.8968 16.5665 72.7819 17.4853 72.4374C18.4041 72.0928 19.0933 71.6334 19.5527 71.174C20.0121 70.5998 20.2418 70.0255 20.2418 69.2216C20.2418 68.1879 19.7824 67.4988 18.8636 66.9246C17.9448 66.3503 16.5665 66.1206 14.7289 66.1206H8.98642V60.0336H14.7289C16.222 60.0336 17.2556 59.8039 18.0596 59.2296C18.8635 58.6553 19.2081 57.9662 19.2081 57.1623C19.2081 56.1286 18.7487 55.3247 17.8299 54.7504C16.9111 54.1762 15.6477 53.8316 14.0398 53.8316C12.5468 53.8316 11.0537 54.1762 9.90522 54.7504C8.64187 55.4395 7.49336 56.4732 6.34485 57.8514L1.636 53.0277C3.2439 51.0752 5.0815 49.697 7.26366 48.6634C9.44582 47.7446 11.7428 47.2852 14.3844 47.2852C16.7962 47.2852 18.8636 47.6297 20.816 48.4337C22.6536 49.1228 24.1467 50.1564 25.2952 51.5346C26.4437 52.9128 26.9031 54.291 26.9031 56.0138C26.9031 57.5068 26.4437 58.7702 25.6397 59.9187C24.8358 61.0672 23.6873 61.8712 22.1942 62.5603C23.917 63.1345 25.2952 64.0533 26.214 65.3167C27.2476 66.58 27.707 68.0731 27.707 69.7958C27.707 71.6334 27.1328 73.3562 25.9843 74.8493C24.8358 76.3423 23.2279 77.4908 21.1606 78.2948C19.0933 78.9839 16.6814 79.4433 14.0398 79.4433Z" fill="#072058"/>
<path d="M29.6611 86.2206V72.5534H63.1975V86.1057H56.3064V75.1949L60.2113 78.7553H33.3363L36.5522 75.9989V86.2206H29.6611ZM30.6948 75.3098V72.5534H32.6473C33.4512 72.5534 34.1403 71.9791 34.5997 70.9455C35.0591 69.797 35.5185 68.0742 35.7482 65.5475L37.9304 48.2051H59.1777V74.2761H51.9421V49.1239L55.3876 54.2921H38.8492L45.0511 49.1239L42.8689 66.3514C42.6392 68.4188 42.1798 70.0267 41.4907 71.4049C40.8016 72.7831 39.8828 73.7019 38.7343 74.391C37.5858 75.0801 36.2076 75.4246 34.5997 75.4246H30.6948V75.3098Z" fill="#072058"/>
<path d="M82.376 79.4425C79.9641 79.4425 77.782 79.0979 75.7147 78.294C73.6473 77.49 71.9246 76.3415 70.4315 74.9633C68.9385 73.5851 67.79 71.8623 66.986 69.9099C66.1821 67.9574 65.7227 65.7753 65.7227 63.4783C65.7227 61.1813 66.1821 58.9991 66.986 57.1615C67.79 55.209 68.9385 53.4863 70.4315 52.1081C71.9246 50.7299 73.6473 49.5814 75.7147 48.7774C77.782 47.9735 79.9641 47.6289 82.376 47.6289C84.7878 47.6289 86.97 47.9735 89.0373 48.7774C91.1046 49.5814 92.8273 50.7299 94.3204 52.1081C95.8135 53.4863 96.962 55.209 97.7659 57.1615C98.5699 59.1139 99.0293 61.1813 99.0293 63.4783C99.0293 65.7753 98.5699 67.9574 97.7659 69.9099C96.962 71.8623 95.8135 73.5851 94.3204 74.9633C92.8273 76.3415 91.1046 77.49 89.0373 78.294C87.0849 78.9831 84.7878 79.4425 82.376 79.4425ZM82.376 73.0109C84.0987 73.0109 85.7066 72.5515 86.97 71.7475C88.3482 70.9435 89.3819 69.795 90.071 68.4168C90.8749 66.9238 91.2195 65.3159 91.2195 63.4783C91.2195 61.6407 90.8749 60.0328 90.071 58.5397C89.267 57.1615 88.2333 56.013 86.97 55.209C85.5918 54.4051 84.0987 53.9457 82.376 53.9457C80.6532 53.9457 79.0453 54.4051 77.7819 55.209C76.4037 56.013 75.3701 57.1615 74.681 58.5397C73.8771 59.9179 73.5325 61.6407 73.5325 63.4783C73.5325 65.3159 73.8771 66.9238 74.681 68.4168C75.485 69.9099 76.5186 70.9435 77.7819 71.7475C79.1602 72.5515 80.6532 73.0109 82.376 73.0109Z" fill="#072058"/>
<path d="M111.894 78.7553H104.544V48.2051H117.292C119.589 48.2051 121.542 48.6645 123.265 49.4684C124.987 50.2724 126.366 51.4209 127.284 52.9139C128.203 54.407 128.777 56.1298 128.777 58.0822C128.777 60.0347 128.318 61.7574 127.284 63.2505C126.251 64.7435 124.987 65.892 123.265 66.696C121.542 67.4999 119.474 67.9593 117.292 67.9593H111.435V61.8723H117.292C118.556 61.8723 119.589 61.5277 120.278 60.8386C120.968 60.1495 121.427 59.2307 121.427 58.0822C121.427 56.9337 121.082 56.0149 120.278 55.3258C119.589 54.6367 118.556 54.2921 117.292 54.2921H111.894V78.7553Z" fill="#072058"/>
<path d="M148.989 79.4425C146.577 79.4425 144.395 79.0979 142.328 78.294C140.261 77.49 138.538 76.3415 137.045 74.9633C135.552 73.5851 134.403 71.8623 133.599 69.9099C132.795 67.9574 132.336 65.7753 132.336 63.4783C132.336 61.1813 132.795 58.9991 133.599 57.1615C134.403 55.209 135.552 53.4863 137.045 52.1081C138.538 50.7299 140.261 49.5814 142.328 48.7774C144.395 47.9735 146.577 47.6289 148.989 47.6289C151.401 47.6289 153.583 47.9735 155.651 48.7774C157.718 49.5814 159.441 50.7299 160.934 52.1081C162.427 53.4863 163.575 55.209 164.379 57.1615C165.183 59.1139 165.643 61.1813 165.643 63.4783C165.643 65.7753 165.183 67.9574 164.379 69.9099C163.575 71.8623 162.427 73.5851 160.934 74.9633C159.441 76.3415 157.718 77.49 155.651 78.294C153.583 78.9831 151.401 79.4425 148.989 79.4425ZM148.989 73.0109C150.712 73.0109 152.32 72.5515 153.583 71.7475C154.961 70.9435 155.995 69.795 156.684 68.4168C157.488 66.9238 157.833 65.3159 157.833 63.4783C157.833 61.6407 157.488 60.0328 156.684 58.5397C155.88 57.1615 154.847 56.013 153.583 55.209C152.205 54.4051 150.712 53.9457 148.989 53.9457C147.266 53.9457 145.659 54.4051 144.395 55.209C143.017 56.013 141.983 57.1615 141.294 58.5397C140.49 59.9179 140.146 61.6407 140.146 63.4783C140.146 65.3159 140.49 66.9238 141.294 68.4168C142.098 69.9099 143.132 70.9435 144.395 71.7475C145.659 72.5515 147.266 73.0109 148.989 73.0109Z" fill="#072058"/>
<path d="M171.04 78.7553V48.2051H184.592C186.66 48.2051 188.497 48.5496 189.99 49.2387C191.483 49.9278 192.747 50.8466 193.551 51.9951C194.355 53.1436 194.814 54.5218 194.814 56.1298C194.814 57.6228 194.355 59.001 193.551 60.1495C192.747 61.298 191.483 62.2168 189.99 62.9059C188.497 63.595 186.66 63.9396 184.592 63.9396H178.85V61.6426H184.592C186.889 61.6426 188.957 61.9871 190.679 62.6762C192.402 63.3653 193.78 64.2841 194.699 65.5475C195.618 66.8108 196.192 68.189 196.192 69.9118C196.192 71.7494 195.733 73.2425 194.699 74.6207C193.666 75.9989 192.402 77.0325 190.679 77.7216C188.957 78.4107 186.889 78.8701 184.592 78.8701H171.04V78.7553ZM178.39 72.7831H184.592C185.856 72.7831 186.889 72.4385 187.578 71.8643C188.268 71.29 188.612 70.3712 188.612 69.3375C188.612 68.3039 188.268 67.4999 187.578 67.0405C186.889 66.4663 185.856 66.2366 184.592 66.2366H177.931V60.3792H184.018C185.052 60.3792 185.856 60.1495 186.43 59.5753C187.004 59.001 187.349 58.3119 187.349 57.2783C187.349 56.3595 187.004 55.6704 186.43 55.211C185.856 54.7516 185.052 54.407 184.018 54.407H178.39V72.7831Z" fill="#072058"/>
<path d="M203.43 60.2629H199.296C200.33 59.1144 201.133 57.851 201.823 56.5877C202.512 55.3243 202.741 54.1758 202.627 53.257L203.89 54.5204C202.741 54.5204 201.708 54.1758 200.904 53.3719C200.1 52.5679 199.755 51.6491 199.755 50.6155C199.755 49.467 200.1 48.5482 200.904 47.7442C201.708 46.9403 202.627 46.5957 203.775 46.5957C205.038 46.5957 206.072 47.0551 206.876 47.8591C207.68 48.7779 208.025 49.8115 208.025 51.3046C208.025 52.2234 207.795 53.257 207.335 54.2907C206.876 55.4392 206.302 56.4728 205.727 57.5065C204.924 58.5401 204.234 59.459 203.43 60.2629Z" fill="#072058"/>
<path d="M210.436 78.7553L220.542 64.5138H228.697L219.164 78.7553H210.436ZM230.075 78.7553V54.2921H224.677C223.414 54.2921 222.38 54.6367 221.691 55.3258C221.002 56.0149 220.542 56.9337 220.542 58.0822C220.542 59.2307 220.887 60.1495 221.691 60.8386C222.38 61.5277 223.414 61.8723 224.677 61.8723H230.534V67.9593H224.677C222.38 67.9593 220.428 67.4999 218.705 66.696C216.982 65.892 215.604 64.7435 214.685 63.2505C213.766 61.7574 213.192 60.0347 213.192 58.0822C213.192 56.1298 213.651 54.407 214.685 52.9139C215.604 51.4209 216.982 50.2724 218.705 49.4684C220.428 48.6645 222.495 48.2051 224.677 48.2051H237.425V78.7553H230.075Z" fill="#072058"/>
<path d="M269.813 78.7553V48.2051H277.163V78.7553H269.813ZM288.648 78.7553L276.129 62.9059H276.819L288.418 48.2051H296.803L285.088 62.9059L297.377 78.7553H288.648ZM249.714 78.7553L262.003 62.9059L250.288 48.2051H258.672L270.272 62.9059H270.961L258.443 78.7553H249.714Z" fill="#072058"/>
<path d="M308.634 78.7553H301.283V48.2051H308.634V78.7553Z" fill="#072058"/>
<path d="M322.874 78.7553H315.523V48.2051H322.874V78.7553ZM322.414 66.2366V60.0347H335.737V66.2366H322.414ZM335.278 78.7553V48.2051H342.628V78.7553H335.278Z" fill="#072058"/>
<path d="M356.869 78.7553H349.519V48.2051H356.869V78.7553ZM379.38 78.7553H369.847L355.835 62.9059H356.524L368.699 48.2051H377.542L364.449 63.4802V62.2168L379.38 78.7553Z" fill="#072058"/>
<path d="M383.285 78.7553V48.2051H390.636V75.7692H385.582L403.154 48.2051H410.849V78.7553H403.499V50.8466H408.667L391.095 78.7553H383.285Z" fill="#072058"/>
<path d="M11.1688 130.09H3.81836V99.54H11.1688V130.09Z" fill="#072058"/>
<path d="M26.3291 130.09V99.54H53.4338V130.09H46.0834V101.263L49.6437 105.627H29.7746L33.6795 101.263V130.09H26.3291Z" fill="#072058"/>
<path d="M58.1455 130.092V123.89H61.2465C62.0504 123.89 62.6247 123.775 62.9692 123.43C63.3138 123.201 63.4286 122.512 63.5435 121.708L66.0702 99.4268H87.4324V129.977H80.0819V100.346L83.6423 105.514H67.6781L73.1909 100.346L70.5494 121.593C70.3197 123.66 69.8603 125.268 69.286 126.417C68.7118 127.68 67.9078 128.484 66.7593 129.058C65.7256 129.632 64.3475 129.862 62.6247 129.862H58.1455V130.092Z" fill="#072058"/>
<path d="M123.953 130.09H116.028L106.84 104.938H108.678L99.4899 130.09H91.7949L103.739 99.54H111.894L123.953 130.09ZM117.407 124.463H98.3414V118.376H117.407V124.463Z" fill="#072058"/>
<path d="M135.784 130.09H128.434V99.54H135.784V130.09ZM135.325 117.572V111.37H148.647V117.572H135.325ZM148.303 130.09V99.54H155.653V130.09H148.303Z" fill="#072058"/>
<path d="M171.272 123.314L159.442 99.54H166.908L176.67 119.983L171.272 123.314ZM161.854 130.09V123.888H166.219C167.252 123.888 168.171 123.773 168.86 123.429C169.549 123.084 170.238 122.51 170.927 121.706C171.502 120.902 172.191 119.754 172.765 118.376L181.149 99.54H188.614L177.014 123.429C176.325 124.922 175.407 126.185 174.373 127.219C173.339 128.253 172.306 128.942 170.927 129.401C169.664 129.861 168.171 130.09 166.563 130.09H161.854Z" fill="#072058"/>
<path d="M192.518 130.09V99.54H206.07C208.137 99.54 209.975 99.8846 211.468 100.574C212.961 101.263 214.224 102.182 215.028 103.33C215.832 104.479 216.292 105.857 216.292 107.465C216.292 108.958 215.832 110.336 215.028 111.484C214.224 112.633 212.961 113.552 211.468 114.241C209.975 114.93 208.137 115.275 206.07 115.275H200.327V112.978H206.07C208.367 112.978 210.434 113.322 212.157 114.011C213.88 114.7 215.258 115.619 216.177 116.882C217.096 118.146 217.67 119.524 217.67 121.247C217.67 123.084 217.21 124.577 216.177 125.956C215.143 127.334 213.88 128.367 212.157 129.057C210.434 129.746 208.367 130.205 206.07 130.205H192.518V130.09ZM199.868 124.003H206.07C207.333 124.003 208.367 123.659 209.056 123.084C209.745 122.51 210.09 121.591 210.09 120.558C210.09 119.524 209.745 118.72 209.056 118.261C208.367 117.686 207.333 117.457 206.07 117.457H199.409V111.599H205.496C206.529 111.599 207.333 111.37 207.908 110.795C208.482 110.221 208.826 109.532 208.826 108.498C208.826 107.58 208.482 106.89 207.908 106.431C207.333 105.972 206.529 105.627 205.496 105.627H199.868V124.003Z" fill="#072058"/>
<path d="M250.746 130.09H242.821L233.633 104.938H235.471L226.283 130.09H218.588L230.532 99.54H238.687L250.746 130.09ZM244.2 124.463H225.134V118.376H244.2V124.463Z" fill="#072058"/>
<path d="M262.58 130.09H255.229V99.54H262.58V130.09ZM262.121 117.572V111.37H275.443V117.572H262.121ZM275.099 130.09V99.54H282.449V130.09H275.099Z" fill="#072058"/>
<path d="M296.687 130.09H289.337V99.54H296.687V130.09ZM296.228 117.572V111.37H309.551V117.572H296.228ZM309.091 130.09V99.54H316.442V130.09H309.091Z" fill="#072058"/>
<path d="M320.576 130.09L330.683 115.849H338.837L329.305 130.09H320.576ZM340.216 130.09V105.627H334.818C333.554 105.627 332.521 105.972 331.832 106.661C331.142 107.35 330.683 108.269 330.683 109.417C330.683 110.566 331.028 111.484 331.832 112.174C332.521 112.863 333.554 113.207 334.818 113.207H340.675V119.294H334.818C332.521 119.294 330.568 118.835 328.845 118.031C327.123 117.227 325.744 116.079 324.826 114.585C323.907 113.092 323.333 111.37 323.333 109.417C323.333 107.465 323.792 105.742 324.826 104.249C325.744 102.756 327.123 101.607 328.845 100.803C330.568 99.9994 332.635 99.54 334.818 99.54H347.566V130.09H340.216Z" fill="#072058"/>
<path d="M385.812 120.215L390.521 125.038C389.143 126.761 387.42 128.139 385.123 129.173C382.941 130.207 380.529 130.781 377.888 130.781C375.361 130.781 373.179 130.436 371.111 129.632C369.044 128.828 367.321 127.795 365.828 126.302C364.335 124.924 363.187 123.201 362.383 121.248C361.579 119.296 361.234 117.114 361.234 114.817C361.234 112.52 361.694 110.338 362.498 108.385C363.302 106.433 364.45 104.71 365.943 103.332C367.436 101.954 369.159 100.805 371.226 100.001C373.294 99.1971 375.476 98.8525 378.003 98.8525C380.644 98.8525 383.056 99.4268 385.238 100.46C387.42 101.494 389.143 102.872 390.521 104.595L385.812 109.419C384.894 108.155 383.86 107.122 382.482 106.433C381.103 105.744 379.61 105.399 378.003 105.399C376.28 105.399 374.787 105.858 373.408 106.662C372.03 107.466 370.997 108.615 370.193 109.993C369.389 111.371 369.044 113.094 369.044 114.932C369.044 116.769 369.389 118.377 370.193 119.87C370.997 121.363 372.03 122.397 373.408 123.201C374.787 124.005 376.28 124.464 378.003 124.464C379.61 124.464 381.103 124.12 382.482 123.316C383.86 122.512 384.894 121.478 385.812 120.215Z" fill="#072058"/>
<path d="M402.578 130.09H395.228V99.54H402.578V130.09Z" fill="#072058"/>
<path d="M429.34 126.3H423.942L412.228 101.952L416.477 101.837V130.09H409.356V99.54H417.511L427.847 121.247H425.321L435.657 99.54H443.697V130.09H436.461V101.837L440.825 101.952L429.34 126.3Z" fill="#072058"/>
<path d="M453.343 111.603H449.208C450.242 110.454 451.046 109.191 451.735 107.928C452.424 106.664 452.654 105.516 452.539 104.597L453.802 105.86C452.654 105.86 451.62 105.516 450.816 104.712C450.012 103.908 449.667 102.989 449.667 101.955C449.667 100.807 450.012 99.888 450.816 99.0841C451.62 98.2801 452.539 97.9355 453.687 97.9355C454.951 97.9355 455.984 98.3949 456.788 99.1989C457.592 100.118 457.937 101.151 457.937 102.644C457.937 103.563 457.707 104.597 457.248 105.631C456.788 106.779 456.214 107.813 455.64 108.846C454.836 109.88 454.147 110.799 453.343 111.603Z" fill="#072058"/>
<path d="M461.614 96.7875C460.465 96.7875 459.547 96.443 458.857 95.7539C458.168 95.0648 457.709 94.146 457.709 93.1123C457.709 92.0787 458.054 91.1599 458.857 90.3559C459.661 89.552 460.58 89.3223 461.614 89.3223C462.648 89.3223 463.681 89.6668 464.37 90.3559C465.174 91.045 465.519 91.9638 465.519 93.1123C465.519 94.146 465.174 95.0648 464.37 95.7539C463.681 96.443 462.762 96.7875 461.614 96.7875ZM470.457 130.094H463.107V99.544H470.457V130.094ZM471.836 96.7875C470.687 96.7875 469.768 96.443 469.079 95.7539C468.275 95.0648 467.931 94.146 467.931 93.1123C467.931 92.0787 468.275 91.1599 469.079 90.3559C469.883 89.6668 470.802 89.3223 471.836 89.3223C472.869 89.3223 473.903 89.6668 474.592 90.3559C475.396 91.045 475.741 91.9638 475.741 93.1123C475.741 94.146 475.396 95.0648 474.592 95.7539C473.903 96.443 472.869 96.7875 471.836 96.7875Z" fill="#072058"/>
<path d="M6.23242 28.2202V6.74316H9.10368V26.038L8.75913 25.6935H15.0759C16.4541 25.6935 17.4878 25.3489 18.2917 24.6598C19.0957 23.9707 19.4402 23.0519 19.4402 21.9034C19.4402 20.7549 19.0957 19.8361 18.2917 19.147C17.4878 18.4579 16.4541 18.2282 15.0759 18.2282H7.72546V15.7015H15.0759C16.569 15.7015 17.8323 15.9312 18.9808 16.5055C20.0145 16.9649 20.9333 17.7688 21.5075 18.6876C22.0818 19.6064 22.4263 20.7549 22.4263 22.0183C22.4263 23.2816 22.0818 24.3153 21.5075 25.2341C20.9333 26.1529 20.0145 26.9568 18.9808 27.4162C17.9472 27.9905 16.5689 28.2202 15.1907 28.2202H6.23242ZM8.07002 9.26987V6.74316H20.7036V9.26987H8.07002Z" fill="#072058"/>
<path d="M24.2617 28.2202V25.6935H25.7548C26.329 25.6935 26.6736 25.5786 27.0181 25.3489C27.2478 25.1192 27.4775 24.6598 27.5924 24.0856L29.7745 6.74316H43.0972V28.2202H40.2259V7.31742L41.9487 9.26987H30.5785L32.5309 7.31742L30.2339 24.4301C30.1191 25.2341 29.8894 26.038 29.5448 26.4974C29.2003 27.0717 28.7409 27.4162 28.1666 27.7608C27.5924 28.1053 26.9033 28.2202 26.0993 28.2202H24.2617Z" fill="#072058"/>
<path d="M66.874 28.2202H63.7731L56.0781 8.69562H57.1117L49.4168 28.2202H46.4307L54.9296 6.74316H58.0306L66.874 28.2202ZM62.7394 22.5925H50.795V20.0658H62.7394V22.5925Z" fill="#072058"/>
<path d="M70.6641 28.2202V6.74316H84.2164V9.26987H71.9274L73.5353 7.43226V28.2202H70.6641Z" fill="#072058"/>
<path d="M96.1616 28.6794C94.5537 28.6794 93.0606 28.4497 91.6824 27.8755C90.3042 27.3012 89.1557 26.4973 88.122 25.5785C87.0884 24.6596 86.2844 23.3963 85.7102 22.0181C85.1359 20.6399 84.9062 19.1468 84.9062 17.5389C84.9062 15.931 85.1359 14.438 85.7102 13.0598C86.2844 11.6816 87.0884 10.533 88.122 9.4994C89.1557 8.46574 90.3042 7.66179 91.6824 7.20239C93.0606 6.62813 94.5537 6.39844 96.1616 6.39844C97.7695 6.39844 99.2625 6.62813 100.641 7.20239C102.019 7.77664 103.167 8.58059 104.201 9.4994C105.235 10.533 106.039 11.6816 106.613 13.0598C107.187 14.438 107.417 15.931 107.417 17.5389C107.417 19.1468 107.187 20.6399 106.613 22.0181C106.039 23.3963 105.235 24.5448 104.201 25.5785C103.167 26.6121 102.019 27.4161 100.641 27.8755C99.3774 28.4497 97.8843 28.6794 96.1616 28.6794ZM96.1616 26.1527C97.7695 26.1527 99.2626 25.8082 100.411 25.0042C101.674 24.3151 102.593 23.2814 103.282 21.9032C103.971 20.6399 104.316 19.1468 104.316 17.4241C104.316 15.7013 103.971 14.3231 103.282 12.9449C102.593 11.5667 101.674 10.6479 100.411 9.84395C99.1477 9.15485 97.7695 8.69545 96.1616 8.69545C94.5537 8.69545 93.1755 9.04 91.9121 9.84395C90.6488 10.5331 89.73 11.5667 89.0409 12.9449C88.3518 14.3231 88.0072 15.7013 88.0072 17.4241C88.0072 19.1468 88.3518 20.525 89.0409 21.9032C89.73 23.1666 90.6488 24.2002 91.9121 25.0042C93.1755 25.6933 94.6685 26.1527 96.1616 26.1527Z" fill="#072058"/>
<path d="M108.105 33.3869V25.6919H129.697V33.3869H126.941V26.381L129.008 28.2186H109.943L110.862 26.4959V33.3869H108.105ZM109.369 27.0701V25.8068H110.288C110.862 25.8068 111.321 25.4622 111.666 24.6583C112.01 23.8543 112.24 22.7058 112.47 21.0979L114.078 6.85645H127.515V26.9553H124.644V7.4307L126.367 9.38316H114.767L116.834 7.4307L115.111 21.4424C114.997 22.7058 114.767 23.7395 114.422 24.5434C114.078 25.3474 113.618 26.0365 113.044 26.381C112.47 26.8404 111.666 27.0701 110.632 27.0701H109.369Z" fill="#072058"/>
<path d="M136.701 28.2202H133.83V6.74316H136.701V28.2202Z" fill="#072058"/>
<path d="M142.213 28.2215V6.74451H145.084V26.6136H143.247L156.569 6.74451H159.67V28.2215H156.799V8.46727H158.522L145.199 28.2215H142.213ZM150.942 4.4475C149.563 4.4475 148.415 4.10295 147.496 3.41384C146.577 2.72474 146.003 1.69109 145.888 0.427734H148.3C148.415 1.23169 148.759 1.80594 149.219 2.26534C149.678 2.72474 150.252 2.83959 151.056 2.83959C151.86 2.83959 152.32 2.60989 152.894 2.26534C153.353 1.92079 153.698 1.23169 153.813 0.427734H156.225C156.11 1.69109 155.536 2.72474 154.617 3.41384C153.698 4.10295 152.32 4.4475 150.942 4.4475Z" fill="#072058"/>
<path d="M168.171 28.2202H165.3V6.74316H168.171V28.2202ZM167.941 18.3431V15.8163H180.345V18.3431H167.941ZM180.001 28.2202V6.74316H182.872V28.2202H180.001Z" fill="#072058"/>
<path d="M188.383 28.2202V6.74316H191.254V26.6123H189.416L202.739 6.74316H205.84V28.2202H202.969V8.46592H204.692L191.369 28.2202H188.383Z" fill="#072058"/>
<path d="M211.472 28.2215V6.74451H214.343V26.6136H212.505L225.828 6.74451H228.929V28.2215H226.058V8.46727H227.78L214.458 28.2215H211.472ZM220.2 4.4475C218.822 4.4475 217.674 4.10295 216.755 3.41384C215.836 2.72474 215.262 1.69109 215.147 0.427734H217.559C217.674 1.23169 218.018 1.80594 218.478 2.26534C218.937 2.72474 219.511 2.83959 220.315 2.83959C221.119 2.83959 221.579 2.60989 222.153 2.26534C222.612 1.92079 222.957 1.23169 223.072 0.427734H225.483C225.369 1.69109 224.794 2.72474 223.876 3.41384C222.957 4.10295 221.579 4.4475 220.2 4.4475Z" fill="#072058"/>
<path d="M250.749 26.0359C246.959 26.0359 244.087 25.3468 242.135 23.8538C240.182 22.3607 239.264 20.2934 239.264 17.4222C239.264 14.5509 240.297 12.4836 242.25 11.1054C244.202 9.61233 247.074 8.92322 250.864 8.92322C254.654 8.92322 257.525 9.61233 259.477 11.1054C261.43 12.5984 262.349 14.6657 262.349 17.4222C262.349 20.1786 261.43 22.3607 259.477 23.7389C257.525 25.1171 254.539 26.0359 250.749 26.0359ZM250.749 23.5092C253.62 23.5092 255.802 23.0498 257.18 22.0162C258.559 20.9825 259.248 19.4895 259.248 17.4222C259.248 15.3548 258.559 13.8618 257.065 12.943C255.687 11.9093 253.505 11.4499 250.634 11.4499C247.763 11.4499 245.58 11.9093 244.202 12.943C242.824 13.9766 242.02 15.4697 242.02 17.4222C242.02 19.4895 242.709 20.9825 244.202 21.9013C245.695 23.0498 247.877 23.5092 250.749 23.5092ZM249.256 29.1369V25.3468L249.37 24.0835V10.8757L249.256 9.72718V5.82227H252.127V9.72718L252.012 10.8757V23.9686L252.127 25.232V29.022H249.256V29.1369Z" fill="#072058"/>
<path d="M276.706 28.6794C275.098 28.6794 273.605 28.4497 272.226 27.8755C270.848 27.3012 269.7 26.4973 268.666 25.5785C267.632 24.6596 266.828 23.3963 266.254 22.0181C265.68 20.6399 265.45 19.1468 265.45 17.5389C265.45 15.931 265.68 14.438 266.254 13.0598C266.828 11.6816 267.632 10.533 268.666 9.4994C269.7 8.46574 270.848 7.66179 272.226 7.20239C273.605 6.62813 275.098 6.39844 276.706 6.39844C278.313 6.39844 279.807 6.62813 281.185 7.20239C282.563 7.77664 283.711 8.58059 284.745 9.4994C285.779 10.533 286.583 11.6816 287.157 13.0598C287.731 14.438 287.961 15.931 287.961 17.5389C287.961 19.1468 287.731 20.6399 287.157 22.0181C286.583 23.3963 285.779 24.5448 284.745 25.5785C283.711 26.6121 282.563 27.4161 281.185 27.8755C279.807 28.4497 278.313 28.6794 276.706 28.6794ZM276.706 26.1527C278.313 26.1527 279.806 25.8082 280.955 25.0042C282.218 24.3151 283.137 23.2814 283.826 21.9032C284.515 20.6399 284.86 19.1468 284.86 17.4241C284.86 15.7013 284.515 14.3231 283.826 12.9449C283.137 11.5667 282.218 10.6479 280.955 9.84395C279.692 9.15485 278.313 8.69545 276.706 8.69545C275.098 8.69545 273.719 9.04 272.456 9.84395C271.193 10.5331 270.274 11.5667 269.585 12.9449C268.896 14.3231 268.551 15.7013 268.551 17.4241C268.551 19.1468 268.896 20.525 269.585 21.9032C270.274 23.1666 271.193 24.2002 272.456 25.0042C273.605 25.6933 275.098 26.1527 276.706 26.1527Z" fill="#072058"/>
<path d="M295.196 28.2202H292.325V6.74316H295.196V28.2202ZM294.852 18.3431V15.8163H307.256V18.3431H294.852ZM306.911 28.2202V6.74316H309.782V28.2202H306.911Z" fill="#072058"/>
<path d="M313.459 33.3869V25.6919H335.051V33.3869H332.294V26.381L334.362 28.2186H315.297L316.215 26.4959V33.3869H313.459ZM314.607 27.0701V25.8068H315.526C316.101 25.8068 316.56 25.4622 316.904 24.6583C317.249 23.8543 317.479 22.7058 317.708 21.0979L319.316 6.85645H332.754V26.9553H329.883V7.4307L331.605 9.38316H320.005L322.073 7.4307L320.35 21.4424C320.235 22.7058 320.005 23.7395 319.661 24.5434C319.316 25.3474 318.857 26.0365 318.283 26.381C317.708 26.8404 316.905 27.0701 315.871 27.0701H314.607Z" fill="#072058"/>
</svg>
