<svg width="48" height="48" viewBox="0 0 48 48" fill="none" xmlns="http://www.w3.org/2000/svg">
<g id="Group">
<g id="Group_2">
<g id="Group_3">
<path id="Vector" d="M26.5081 44.1799L22.3896 44.0488C22.3896 43.8055 22.3709 42.2517 22.3522 41.9708C22.2585 40.1549 22.0339 38.4513 21.7156 36.8975C21.3225 36.9162 20.9481 36.935 20.5549 36.935C11.3818 36.935 3.40675 30.7384 1.14154 21.846L0.598633 19.6931L2.78897 19.3187C3.14467 19.2626 11.6813 17.8772 18.4957 23.325C21.2851 25.5527 23.3444 28.5293 24.6922 32.2735C31.4692 30.4389 36.4676 24.2423 36.4676 16.9038C36.4676 13.1409 35.1384 9.50906 32.7234 6.64479C32.4052 6.27037 31.8436 5.65259 31.544 5.35306L34.4645 2.43262C34.8576 2.82575 35.5128 3.55586 35.8685 3.98644C38.92 7.59954 40.5861 12.1861 40.5861 16.9038C40.5861 26.1331 34.296 33.9396 25.7968 36.2423C26.1524 37.9646 26.3771 39.7992 26.4707 41.7649C26.4894 42.0832 26.5269 43.768 26.5081 44.1799ZM5.95276 23.2126C8.4239 28.9412 14.0963 32.7602 20.4988 32.7977C19.4317 30.1768 17.8966 28.08 15.9496 26.5262C12.5237 23.8117 8.48006 23.2501 5.95276 23.2126Z" fill="#E4215C"/>
</g>
</g>
<g id="Group_4">
<g id="Group_5">
<path id="Vector_2" d="M23.476 21.2103C19.3199 21.2103 15.9502 17.8406 15.9502 13.6846C15.9502 9.52855 19.3199 6.15881 23.476 6.15881C27.632 6.15881 31.0017 9.52855 31.0017 13.6846C31.0017 17.8406 27.632 21.2103 23.476 21.2103ZM23.476 10.2774C21.6039 10.2774 20.0688 11.8125 20.0688 13.6846C20.0688 15.5566 21.6039 17.0917 23.476 17.0917C25.348 17.0917 26.8831 15.5566 26.8831 13.6846C26.8831 11.8125 25.348 10.2774 23.476 10.2774Z" fill="#E4215C"/>
</g>
</g>
<g id="Group_6">
<g id="Group_7">
<path id="Vector_3" d="M24 48C10.7644 48 0 37.2356 0 24C0 10.7644 10.7644 0 24 0C37.2356 0 48 10.7644 48 24C48 37.2356 37.2356 48 24 48ZM24 4.11856C13.0296 4.11856 4.11856 13.0296 4.11856 24C4.11856 34.9704 13.0296 43.8814 24 43.8814C34.9703 43.8814 43.8814 34.9704 43.8814 24C43.8814 13.0296 34.9703 4.11856 24 4.11856Z" fill="#E4215C"/>
</g>
</g>
</g>
</svg>
