<svg width="190" height="56" viewBox="0 0 190 56" fill="none" xmlns="http://www.w3.org/2000/svg">
<g id="Frame 1321315744">
<g id="Group 1321314824">
<g id="Group">
<g id="Group_2">
<path id="Vector" d="M68.7629 31.1107C68.045 31.1107 67.387 30.991 66.7888 30.7218C66.1906 30.4526 65.7121 30.0936 65.3232 29.615L66.5196 28.3885C66.8187 28.7175 67.1777 28.9868 67.5665 29.1363C67.9553 29.3158 68.3741 29.4056 68.8227 29.4056C69.1517 29.4056 69.4209 29.3756 69.6602 29.2859C69.8995 29.1962 70.0789 29.0765 70.1986 28.9568C70.3182 28.8073 70.378 28.6577 70.378 28.4483C70.378 28.1791 70.2584 27.9996 70.0191 27.85C69.7798 27.7004 69.4209 27.6406 68.9423 27.6406H67.4468V26.0551H68.9423C69.3312 26.0551 69.6004 25.9953 69.8097 25.8457C70.0191 25.6962 70.1088 25.5167 70.1088 25.3073C70.1088 25.038 69.9892 24.8286 69.7499 24.6791C69.5106 24.5295 69.1816 24.4397 68.7629 24.4397C68.3741 24.4397 67.9852 24.5295 67.6861 24.6791C67.3571 24.8586 67.058 25.1278 66.7589 25.4868L65.5326 24.2303C65.9514 23.7218 66.4299 23.3628 66.9982 23.0936C67.5665 22.8543 68.1647 22.7346 68.8526 22.7346C69.4807 22.7346 70.0191 22.8244 70.5276 23.0338C71.0061 23.2133 71.395 23.4825 71.6941 23.8415C71.9932 24.2004 72.1128 24.5594 72.1128 25.0081C72.1128 25.397 71.9932 25.7261 71.7838 26.0252C71.5744 26.3244 71.2753 26.5338 70.8865 26.7133C71.3351 26.8628 71.6941 27.1021 71.9333 27.4312C72.2025 27.7603 72.3222 28.1491 72.3222 28.5979C72.3222 29.0765 72.1726 29.5252 71.8735 29.9141C71.5744 30.303 71.1557 30.6021 70.6173 30.8115C70.0789 30.991 69.4508 31.1107 68.7629 31.1107Z" fill="#171717"/>
<path id="Vector_2" d="M72.8301 32.8749V29.315H81.5638V32.8449H79.7692V30.0031L80.7861 30.9304H73.7872L74.6247 30.2125V32.8749H72.8301ZM73.0993 30.033V29.315H73.6077C73.8171 29.315 73.9966 29.1655 74.1162 28.8962C74.2358 28.5971 74.3555 28.1484 74.4153 27.4902L74.9836 22.9731H80.5169V29.7637H78.6326V23.2125L79.5299 24.5586H75.2229L76.838 23.2125L76.2697 27.6996C76.2099 28.2381 76.0903 28.6569 75.9108 29.0159C75.7313 29.3749 75.4921 29.6142 75.193 29.7937C74.8939 29.9731 74.5349 30.0629 74.1162 30.0629H73.0993V30.033Z" fill="#171717"/>
<path id="Vector_3" d="M86.5586 31.1105C85.9305 31.1105 85.3622 31.0208 84.8238 30.8114C84.2855 30.602 83.8368 30.3029 83.448 29.9439C83.0592 29.5849 82.7601 29.1362 82.5507 28.6276C82.3413 28.1191 82.2217 27.5507 82.2217 26.9524C82.2217 26.3541 82.3413 25.7858 82.5507 25.3071C82.7601 24.7986 83.0592 24.3499 83.448 23.9909C83.8368 23.6319 84.2855 23.3328 84.8238 23.1234C85.3622 22.914 85.9305 22.8242 86.5586 22.8242C87.1867 22.8242 87.755 22.914 88.2934 23.1234C88.8318 23.3328 89.2804 23.6319 89.6692 23.9909C90.0581 24.3499 90.3572 24.7986 90.5665 25.3071C90.7759 25.8157 90.8956 26.3541 90.8956 26.9524C90.8956 27.5507 90.7759 28.1191 90.5665 28.6276C90.3572 29.1362 90.0581 29.5849 89.6692 29.9439C89.2804 30.3029 88.8318 30.602 88.2934 30.8114C87.7849 30.9909 87.1867 31.1105 86.5586 31.1105ZM86.5586 29.4353C87.0073 29.4353 87.426 29.3157 87.755 29.1063C88.1139 28.8969 88.3831 28.5977 88.5626 28.2387C88.772 27.8499 88.8617 27.4311 88.8617 26.9524C88.8617 26.4738 88.772 26.055 88.5626 25.6661C88.3532 25.3071 88.084 25.008 87.755 24.7986C87.3961 24.5892 87.0073 24.4695 86.5586 24.4695C86.11 24.4695 85.6912 24.5892 85.3622 24.7986C85.0033 25.008 84.7341 25.3071 84.5547 25.6661C84.3453 26.0251 84.2556 26.4738 84.2556 26.9524C84.2556 27.4311 84.3453 27.8499 84.5547 28.2387C84.764 28.6276 85.0332 28.8969 85.3622 29.1063C85.7211 29.3157 86.11 29.4353 86.5586 29.4353Z" fill="#171717"/>
<path id="Vector_4" d="M94.2463 30.9304H92.332V22.9731H95.652C96.2502 22.9731 96.7587 23.0928 97.2073 23.3022C97.656 23.5116 98.0149 23.8108 98.2542 24.1996C98.4935 24.5885 98.643 25.0372 98.643 25.5458C98.643 26.0543 98.5234 26.5031 98.2542 26.8919C97.985 27.2808 97.656 27.58 97.2073 27.7894C96.7587 27.9988 96.2203 28.1184 95.652 28.1184H94.1266V26.533H95.652C95.981 26.533 96.2502 26.4432 96.4297 26.2637C96.6091 26.0843 96.7288 25.8449 96.7288 25.5458C96.7288 25.2466 96.6391 25.0073 96.4297 24.8278C96.2502 24.6484 95.981 24.5586 95.652 24.5586H94.2463V30.9304Z" fill="#171717"/>
<path id="Vector_5" d="M103.907 31.1105C103.279 31.1105 102.711 31.0208 102.172 30.8114C101.634 30.602 101.185 30.3029 100.797 29.9439C100.408 29.5849 100.109 29.1362 99.8993 28.6276C99.69 28.1191 99.5703 27.5507 99.5703 26.9524C99.5703 26.3541 99.69 25.7858 99.8993 25.3071C100.109 24.7986 100.408 24.3499 100.797 23.9909C101.185 23.6319 101.634 23.3328 102.172 23.1234C102.711 22.914 103.279 22.8242 103.907 22.8242C104.535 22.8242 105.104 22.914 105.642 23.1234C106.18 23.3328 106.629 23.6319 107.018 23.9909C107.407 24.3499 107.706 24.7986 107.915 25.3071C108.125 25.8157 108.244 26.3541 108.244 26.9524C108.244 27.5507 108.125 28.1191 107.915 28.6276C107.706 29.1362 107.407 29.5849 107.018 29.9439C106.629 30.3029 106.18 30.602 105.642 30.8114C105.104 30.9909 104.535 31.1105 103.907 31.1105ZM103.907 29.4353C104.356 29.4353 104.775 29.3157 105.104 29.1063C105.463 28.8969 105.732 28.5977 105.911 28.2387C106.121 27.8499 106.21 27.4311 106.21 26.9524C106.21 26.4738 106.121 26.055 105.911 25.6661C105.702 25.3071 105.433 25.008 105.104 24.7986C104.745 24.5892 104.356 24.4695 103.907 24.4695C103.459 24.4695 103.04 24.5892 102.711 24.7986C102.352 25.008 102.083 25.3071 101.903 25.6661C101.694 26.0251 101.604 26.4738 101.604 26.9524C101.604 27.4311 101.694 27.8499 101.903 28.2387C102.113 28.6276 102.382 28.8969 102.711 29.1063C103.04 29.3157 103.459 29.4353 103.907 29.4353Z" fill="#171717"/>
<path id="Vector_6" d="M109.649 30.9304V22.9731H113.179C113.717 22.9731 114.196 23.0629 114.585 23.2424C114.973 23.4219 115.302 23.6612 115.512 23.9603C115.721 24.2595 115.841 24.6184 115.841 25.0372C115.841 25.4261 115.721 25.7851 115.512 26.0843C115.302 26.3834 114.973 26.6227 114.585 26.8022C114.196 26.9817 113.717 27.0714 113.179 27.0714H111.683V26.4731H113.179C113.777 26.4731 114.315 26.5629 114.764 26.7424C115.213 26.9219 115.572 27.1612 115.811 27.4902C116.05 27.8193 116.2 28.1783 116.2 28.627C116.2 29.1056 116.08 29.4945 115.811 29.8535C115.542 30.2125 115.213 30.4817 114.764 30.6612C114.315 30.8407 113.777 30.9603 113.179 30.9603H109.649V30.9304ZM111.564 29.3749H113.179C113.508 29.3749 113.777 29.2851 113.956 29.1355C114.136 28.986 114.226 28.7466 114.226 28.4774C114.226 28.2082 114.136 27.9988 113.956 27.8791C113.777 27.7296 113.508 27.6697 113.179 27.6697H111.444V26.1441H113.029C113.298 26.1441 113.508 26.0843 113.657 25.9347C113.807 25.7851 113.897 25.6056 113.897 25.3364C113.897 25.0971 113.807 24.9176 113.657 24.7979C113.508 24.6783 113.298 24.5885 113.029 24.5885H111.564V29.3749Z" fill="#171717"/>
<path id="Vector_7" d="M118.084 26.1142H117.007C117.276 25.8151 117.485 25.4861 117.665 25.1571C117.844 24.8281 117.904 24.529 117.874 24.2897L118.203 24.6187C117.904 24.6187 117.635 24.529 117.426 24.3196C117.216 24.1102 117.126 23.871 117.126 23.6018C117.126 23.3027 117.216 23.0634 117.426 22.854C117.635 22.6447 117.874 22.5549 118.173 22.5549C118.502 22.5549 118.772 22.6746 118.981 22.8839C119.19 23.1232 119.28 23.3924 119.28 23.7812C119.28 24.0205 119.22 24.2897 119.101 24.5589C118.981 24.858 118.831 25.1272 118.682 25.3964C118.472 25.6656 118.293 25.9048 118.084 26.1142Z" fill="#171717"/>
<path id="Vector_8" d="M119.909 30.9304L122.541 27.221H124.665L122.182 30.9304H119.909ZM125.024 30.9304V24.5586H123.618C123.289 24.5586 123.02 24.6484 122.84 24.8278C122.661 25.0073 122.541 25.2466 122.541 25.5458C122.541 25.8449 122.631 26.0843 122.84 26.2637C123.02 26.4432 123.289 26.533 123.618 26.533H125.143V28.1184H123.618C123.02 28.1184 122.511 27.9988 122.063 27.7894C121.614 27.58 121.255 27.2808 121.016 26.8919C120.777 26.5031 120.627 26.0543 120.627 25.5458C120.627 25.0372 120.747 24.5885 121.016 24.1996C121.255 23.8108 121.614 23.5116 122.063 23.3022C122.511 23.0928 123.05 22.9731 123.618 22.9731H126.938V30.9304H125.024Z" fill="#171717"/>
<path id="Vector_9" d="M135.373 30.9304V22.9731H137.287V30.9304H135.373ZM140.278 30.9304L137.018 26.8022H137.197L140.218 22.9731H142.402L139.351 26.8022L142.551 30.9304H140.278ZM130.139 30.9304L133.339 26.8022L130.288 22.9731H132.472L135.493 26.8022H135.672L132.412 30.9304H130.139Z" fill="#171717"/>
<path id="Vector_10" d="M145.483 30.9304H143.568V22.9731H145.483V30.9304Z" fill="#171717"/>
<path id="Vector_11" d="M149.191 30.9304H147.276V22.9731H149.191V30.9304ZM149.071 27.6697V26.0543H152.541V27.6697H149.071ZM152.421 30.9304V22.9731H154.335V30.9304H152.421Z" fill="#171717"/>
<path id="Vector_12" d="M158.044 30.9304H156.13V22.9731H158.044V30.9304ZM163.906 30.9304H161.424L157.775 26.8022H157.954L161.125 22.9731H163.428L160.018 26.9518V26.6227L163.906 30.9304Z" fill="#171717"/>
<path id="Vector_13" d="M164.923 30.9304V22.9731H166.837V30.1526H165.521L170.097 22.9731H172.101V30.9304H170.187V23.6612H171.533L166.957 30.9304H164.923Z" fill="#171717"/>
<path id="Vector_14" d="M68.0158 44.3025H66.1016V36.3452H68.0158V44.3025Z" fill="#171717"/>
<path id="Vector_15" d="M71.9629 44.3025V36.3452H79.0216V44.3025H77.1074V36.7939L78.0346 37.9307H72.8602L73.8771 36.7939V44.3025H71.9629Z" fill="#171717"/>
<path id="Vector_16" d="M80.248 44.3024V42.687H81.0556C81.265 42.687 81.4145 42.6571 81.5043 42.5673C81.594 42.5075 81.6239 42.328 81.6538 42.1186L82.3118 36.3152H87.8751V44.2725H85.9608V36.5545L86.8881 37.9007H82.7306L84.1662 36.5545L83.4783 42.0887C83.4185 42.6272 83.2989 43.046 83.1493 43.3451C82.9998 43.6742 82.7904 43.8836 82.4913 44.0331C82.2221 44.1827 81.8632 44.2425 81.4145 44.2425H80.248V44.3024Z" fill="#171717"/>
<path id="Vector_17" d="M97.3865 44.3025H95.3227L92.9299 37.7512H93.4085L91.0157 44.3025H89.0117L92.1223 36.3452H94.246L97.3865 44.3025ZM95.6816 42.8367H90.7166V41.2512H95.6816V42.8367Z" fill="#171717"/>
<path id="Vector_18" d="M100.468 44.3025H98.5537V36.3452H100.468V44.3025ZM100.348 41.0418V39.4264H103.818V41.0418H100.348ZM103.728 44.3025V36.3452H105.642V44.3025H103.728Z" fill="#171717"/>
<path id="Vector_19" d="M109.71 42.5375L106.629 36.3452H108.573L111.115 41.67L109.71 42.5375ZM107.257 44.3025V42.6871H108.394C108.663 42.6871 108.902 42.6572 109.082 42.5674C109.261 42.4777 109.44 42.3281 109.62 42.1187C109.769 41.9093 109.949 41.6102 110.098 41.2512L112.282 36.3452H114.226L111.205 42.5674C111.026 42.9563 110.786 43.2854 110.517 43.5546C110.248 43.8238 109.979 44.0033 109.62 44.123C109.291 44.2427 108.902 44.3025 108.483 44.3025H107.257Z" fill="#171717"/>
<path id="Vector_20" d="M115.242 44.3025V36.3452H118.772C119.31 36.3452 119.788 36.435 120.177 36.6144C120.566 36.7939 120.895 37.0332 121.105 37.3324C121.314 37.6315 121.434 37.9905 121.434 38.4093C121.434 38.7982 121.314 39.1572 121.105 39.4563C120.895 39.7555 120.566 39.9948 120.177 40.1743C119.788 40.3538 119.31 40.4435 118.772 40.4435H117.276V39.8452H118.772C119.37 39.8452 119.908 39.935 120.357 40.1144C120.805 40.2939 121.164 40.5333 121.404 40.8623C121.643 41.1914 121.792 41.5503 121.792 41.9991C121.792 42.4777 121.673 42.8666 121.404 43.2256C121.134 43.5845 120.805 43.8538 120.357 44.0332C119.908 44.2127 119.37 44.3324 118.772 44.3324H115.242V44.3025ZM117.156 42.717H118.772C119.101 42.717 119.37 42.6273 119.549 42.4777C119.729 42.3281 119.818 42.0888 119.818 41.8196C119.818 41.5503 119.729 41.3409 119.549 41.2213C119.37 41.0717 119.101 41.0119 118.772 41.0119H117.037V39.4862H118.622C118.891 39.4862 119.101 39.4264 119.25 39.2768C119.4 39.1273 119.489 38.9478 119.489 38.6785C119.489 38.4392 119.4 38.2597 119.25 38.1401C119.101 38.0204 118.891 37.9307 118.622 37.9307H117.156V42.717Z" fill="#171717"/>
<path id="Vector_21" d="M130.407 44.3022H128.343L125.95 37.751H126.429L124.036 44.3022H122.032L125.143 36.345H127.266L130.407 44.3022ZM128.702 42.8364H123.737V41.251H128.702V42.8364Z" fill="#171717"/>
<path id="Vector_22" d="M133.488 44.3025H131.574V36.3452H133.488V44.3025ZM133.369 41.0418V39.4264H136.838V41.0418H133.369ZM136.749 44.3025V36.3452H138.663V44.3025H136.749Z" fill="#171717"/>
<path id="Vector_23" d="M142.37 44.3025H140.456V36.3452H142.37V44.3025ZM142.251 41.0418V39.4264H145.72V41.0418H142.251ZM145.601 44.3025V36.3452H147.515V44.3025H145.601Z" fill="#171717"/>
<path id="Vector_24" d="M148.593 44.3025L151.225 40.5931H153.348L150.866 44.3025H148.593ZM153.707 44.3025V37.9307H152.302C151.973 37.9307 151.703 38.0204 151.524 38.1999C151.344 38.3794 151.225 38.6187 151.225 38.9179C151.225 39.217 151.315 39.4563 151.524 39.6358C151.703 39.8153 151.973 39.905 152.302 39.905H153.827V41.4905H152.302C151.703 41.4905 151.195 41.3709 150.746 41.1615C150.298 40.9521 149.939 40.6529 149.699 40.264C149.46 39.8751 149.311 39.4264 149.311 38.9179C149.311 38.4093 149.43 37.9606 149.699 37.5717C149.939 37.1828 150.298 36.8837 150.746 36.6743C151.195 36.4649 151.733 36.3452 152.302 36.3452H155.622V44.3025H153.707Z" fill="#171717"/>
<path id="Vector_25" d="M165.581 41.7299L166.808 42.9863C166.449 43.435 166 43.794 165.402 44.0632C164.834 44.3324 164.206 44.482 163.518 44.482C162.86 44.482 162.291 44.3923 161.753 44.1829C161.215 43.9735 160.766 43.7042 160.377 43.3153C159.988 42.9564 159.689 42.5076 159.48 41.9991C159.27 41.4906 159.181 40.9222 159.181 40.3239C159.181 39.7256 159.3 39.1572 159.51 38.6487C159.719 38.1401 160.018 37.6914 160.407 37.3324C160.796 36.9735 161.244 36.6743 161.783 36.4649C162.321 36.2555 162.889 36.1658 163.548 36.1658C164.235 36.1658 164.864 36.3153 165.432 36.5846C166 36.8538 166.449 37.2128 166.808 37.6615L165.581 38.9179C165.342 38.5888 165.073 38.3196 164.714 38.1401C164.355 37.9606 163.966 37.8709 163.548 37.8709C163.099 37.8709 162.71 37.9906 162.351 38.2C161.992 38.4094 161.723 38.7085 161.514 39.0675C161.304 39.4265 161.215 39.8752 161.215 40.3538C161.215 40.8324 161.304 41.2512 161.514 41.6401C161.723 42.029 161.992 42.2983 162.351 42.5077C162.71 42.7171 163.099 42.8367 163.548 42.8367C163.966 42.8367 164.355 42.747 164.714 42.5376C165.073 42.3282 165.342 42.0589 165.581 41.7299Z" fill="#171717"/>
<path id="Vector_26" d="M169.948 44.3025H168.034V36.3452H169.948V44.3025Z" fill="#171717"/>
<path id="Vector_27" d="M176.917 43.3153H175.511L172.461 36.9734L173.567 36.9435V44.3025H171.713V36.3452H173.837L176.528 41.9991H175.87L178.562 36.3452H180.656V44.3025H178.772V36.9435L179.908 36.9734L176.917 43.3153Z" fill="#171717"/>
<path id="Vector_28" d="M183.169 39.4853H182.092C182.361 39.1862 182.57 38.8572 182.75 38.5282C182.929 38.1992 182.989 37.9001 182.959 37.6608L183.288 37.9898C182.989 37.9898 182.72 37.9001 182.511 37.6907C182.301 37.4813 182.211 37.2421 182.211 36.9729C182.211 36.6738 182.301 36.4345 182.511 36.2251C182.72 36.0158 182.959 35.926 183.258 35.926C183.587 35.926 183.856 36.0457 184.066 36.255C184.275 36.4943 184.365 36.7635 184.365 37.1523C184.365 37.3916 184.305 37.6608 184.185 37.93C184.066 38.2291 183.916 38.4983 183.767 38.7675C183.557 39.0367 183.378 39.2759 183.169 39.4853Z" fill="#171717"/>
<path id="Vector_29" d="M185.322 35.6276C185.023 35.6276 184.783 35.5378 184.604 35.3583C184.424 35.1788 184.305 34.9395 184.305 34.6703C184.305 34.4011 184.394 34.1617 184.604 33.9523C184.813 33.7429 185.052 33.6831 185.322 33.6831C185.591 33.6831 185.86 33.7728 186.039 33.9523C186.249 34.1318 186.339 34.3711 186.339 34.6703C186.339 34.9395 186.249 35.1788 186.039 35.3583C185.86 35.5378 185.621 35.6276 185.322 35.6276ZM187.625 44.3028H185.71V36.3455H187.625V44.3028ZM187.984 35.6276C187.685 35.6276 187.445 35.5378 187.266 35.3583C187.056 35.1788 186.967 34.9395 186.967 34.6703C186.967 34.4011 187.056 34.1617 187.266 33.9523C187.475 33.7728 187.714 33.6831 187.984 33.6831C188.253 33.6831 188.522 33.7728 188.701 33.9523C188.911 34.1318 189.001 34.3711 189.001 34.6703C189.001 34.9395 188.911 35.1788 188.701 35.3583C188.522 35.5378 188.253 35.6276 187.984 35.6276Z" fill="#171717"/>
</g>
<g id="Group_3">
<g id="Group_4">
<path id="Vector_30" d="M66.7285 17.768V12.1748H67.4763V17.1997L67.3865 17.1099H69.0316C69.3905 17.1099 69.6597 17.0202 69.8691 16.8408C70.0784 16.6613 70.1682 16.422 70.1682 16.1229C70.1682 15.8238 70.0784 15.5845 69.8691 15.4051C69.6597 15.2256 69.3905 15.1658 69.0316 15.1658H67.1173V14.5078H69.0316C69.4204 14.5078 69.7494 14.5676 70.0485 14.7171C70.3177 14.8368 70.557 15.0462 70.7065 15.2854C70.8561 15.5247 70.9458 15.8238 70.9458 16.1528C70.9458 16.4818 70.8561 16.751 70.7065 16.9903C70.557 17.2296 70.3177 17.439 70.0485 17.5586C69.7793 17.7081 69.4204 17.768 69.0615 17.768H66.7285ZM67.2071 12.8328V12.1748H70.4972V12.8328H67.2071Z" fill="#171717"/>
<path id="Vector_31" d="M71.4238 17.768V17.1099H71.8127C71.9622 17.1099 72.0519 17.08 72.1417 17.0202C72.2015 16.9604 72.2613 16.8408 72.2912 16.6912L72.8595 12.1748H76.3291V17.768H75.5813V12.3244L76.03 12.8328H73.0689L73.5773 12.3244L72.9791 16.7809C72.9492 16.9903 72.8894 17.1997 72.7997 17.3193C72.71 17.4689 72.5903 17.5586 72.4408 17.6483C72.2912 17.7381 72.1118 17.768 71.9024 17.768H71.4238Z" fill="#171717"/>
<path id="Vector_32" d="M82.5212 17.7677H81.7137L79.7097 12.683H79.9789L77.9749 17.7677H77.1973L79.4106 12.1746H80.2182L82.5212 17.7677ZM81.4445 16.3021H78.3338V15.6441H81.4445V16.3021Z" fill="#171717"/>
<path id="Vector_33" d="M83.5088 17.7677V12.1746H87.0382V12.8326H83.8378L84.2565 12.354V17.7677H83.5088Z" fill="#171717"/>
<path id="Vector_34" d="M90.148 17.887C89.7292 17.887 89.3404 17.8272 88.9815 17.6776C88.6226 17.5281 88.3235 17.3187 88.0543 17.0794C87.7851 16.8402 87.5757 16.5111 87.4262 16.1522C87.2766 15.7933 87.2168 15.4045 87.2168 14.9857C87.2168 14.567 87.2766 14.1782 87.4262 13.8192C87.5757 13.4603 87.7851 13.1612 88.0543 12.892C88.3235 12.6229 88.6226 12.4135 88.9815 12.2938C89.3404 12.1443 89.7292 12.0845 90.148 12.0845C90.5667 12.0845 90.9555 12.1443 91.3145 12.2938C91.6734 12.4434 91.9725 12.6528 92.2417 12.892C92.5109 13.1612 92.7202 13.4603 92.8698 13.8192C93.0193 14.1782 93.0791 14.567 93.0791 14.9857C93.0791 15.4045 93.0193 15.7933 92.8698 16.1522C92.7202 16.5111 92.5109 16.8102 92.2417 17.0794C91.9725 17.3486 91.6734 17.558 91.3145 17.6776C90.9854 17.8272 90.5966 17.887 90.148 17.887ZM90.148 17.229C90.5667 17.229 90.9555 17.1392 91.2546 16.9299C91.5836 16.7504 91.8229 16.4812 92.0024 16.1223C92.1818 15.7933 92.2716 15.4045 92.2716 14.9558C92.2716 14.5072 92.1818 14.1483 92.0024 13.7893C91.8229 13.4304 91.5836 13.1911 91.2546 12.9818C90.9256 12.8023 90.5667 12.6827 90.148 12.6827C89.7292 12.6827 89.3703 12.7724 89.0413 12.9818C88.7123 13.1612 88.473 13.4304 88.2936 13.7893C88.1141 14.1483 88.0244 14.5072 88.0244 14.9558C88.0244 15.4045 88.1141 15.7634 88.2936 16.1223C88.473 16.4513 88.7123 16.7205 89.0413 16.9299C89.3703 17.1093 89.7591 17.229 90.148 17.229Z" fill="#171717"/>
<path id="Vector_35" d="M93.2588 19.1148V17.1106H98.8819V19.1148H98.164V17.2901L98.7024 17.7687H93.7373L93.9766 17.32V19.1148H93.2588ZM93.5878 17.4695V17.1405H93.8271C93.9766 17.1405 94.0963 17.0507 94.186 16.8413C94.2757 16.6319 94.3356 16.3328 94.3954 15.914L94.8141 12.2046H98.3136V17.4396H97.5658V12.3542L98.0145 12.8627H94.9936L95.5319 12.3542L95.0833 16.0037C95.0534 16.3328 94.9936 16.602 94.9038 16.8114C94.8141 17.0208 94.6945 17.2003 94.5449 17.2901C94.3954 17.4097 94.186 17.4695 93.9168 17.4695H93.5878Z" fill="#171717"/>
<path id="Vector_36" d="M100.707 17.7677H99.959V12.1746H100.707V17.7677Z" fill="#171717"/>
<path id="Vector_37" d="M102.142 17.7686V12.1746H102.889V17.3498H102.411L105.88 12.1746H106.688V17.7686H105.94V12.6233H106.389L102.919 17.7686H102.142ZM104.415 11.5763C104.056 11.5763 103.757 11.4866 103.517 11.3071C103.278 11.1276 103.129 10.8584 103.099 10.5293H103.727C103.757 10.7387 103.846 10.8883 103.966 11.0079C104.086 11.1276 104.235 11.1575 104.445 11.1575C104.654 11.1575 104.774 11.0977 104.923 11.0079C105.043 10.9182 105.133 10.7387 105.163 10.5293H105.791C105.761 10.8584 105.611 11.1276 105.372 11.3071C105.133 11.4866 104.774 11.5763 104.415 11.5763Z" fill="#171717"/>
<path id="Vector_38" d="M108.902 17.768H108.154V12.1748H108.902V17.768ZM108.842 15.1957V14.5377H112.072V15.1957H108.842ZM111.983 17.768V12.1748H112.731V17.768H111.983Z" fill="#171717"/>
<path id="Vector_39" d="M114.165 17.7677V12.1746H114.913V17.349H114.434L117.904 12.1746H118.711V17.7677H117.964V12.6232H118.412L114.943 17.7677H114.165Z" fill="#171717"/>
<path id="Vector_40" d="M120.178 17.7686V12.1746H120.925V17.3498H120.447L123.916 12.1746H124.724V17.7686H123.976V12.6233H124.425L120.955 17.7686H120.178ZM122.451 11.5763C122.092 11.5763 121.793 11.4866 121.554 11.3071C121.314 11.1276 121.165 10.8584 121.135 10.5293H121.763C121.793 10.7387 121.883 10.8883 122.002 11.0079C122.122 11.1276 122.271 11.1575 122.481 11.1575C122.69 11.1575 122.81 11.0977 122.959 11.0079C123.079 10.9182 123.169 10.7387 123.199 10.5293H123.827C123.797 10.8584 123.647 11.1276 123.408 11.3071C123.169 11.4866 122.81 11.5763 122.451 11.5763Z" fill="#171717"/>
<path id="Vector_41" d="M130.407 17.1995C129.42 17.1995 128.672 17.02 128.164 16.6312C127.655 16.2423 127.416 15.704 127.416 14.9562C127.416 14.2085 127.685 13.6701 128.194 13.3112C128.702 12.9223 129.45 12.7429 130.437 12.7429C131.424 12.7429 132.172 12.9223 132.68 13.3112C133.189 13.7 133.428 14.2384 133.428 14.9562C133.428 15.674 133.189 16.2423 132.68 16.6013C132.172 16.9602 131.394 17.1995 130.407 17.1995ZM130.407 16.5414C131.155 16.5414 131.723 16.4218 132.082 16.1526C132.441 15.8834 132.62 15.4946 132.62 14.9562C132.62 14.4178 132.441 14.029 132.052 13.7897C131.693 13.5205 131.125 13.4009 130.377 13.4009C129.629 13.4009 129.061 13.5205 128.702 13.7897C128.343 14.0589 128.134 14.4477 128.134 14.9562C128.134 15.4946 128.313 15.8834 128.702 16.1227C129.091 16.4218 129.659 16.5414 130.407 16.5414ZM130.018 18.007V17.02L130.048 16.691V13.2513L130.018 12.9522V11.9353H130.766V12.9522L130.736 13.2513V16.6611L130.766 16.9901V17.9771H130.018V18.007Z" fill="#171717"/>
<path id="Vector_42" d="M137.166 17.8872C136.747 17.8872 136.358 17.8274 135.999 17.6779C135.64 17.5283 135.341 17.319 135.072 17.0797C134.803 16.8404 134.593 16.5114 134.444 16.1525C134.294 15.7935 134.234 15.4047 134.234 14.986C134.234 14.5672 134.294 14.1784 134.444 13.8195C134.593 13.4606 134.803 13.1615 135.072 12.8923C135.341 12.6231 135.64 12.4137 135.999 12.2941C136.358 12.1445 136.747 12.0847 137.166 12.0847C137.584 12.0847 137.973 12.1445 138.332 12.2941C138.691 12.4436 138.99 12.653 139.259 12.8923C139.528 13.1615 139.738 13.4606 139.887 13.8195C140.037 14.1784 140.097 14.5672 140.097 14.986C140.097 15.4047 140.037 15.7935 139.887 16.1525C139.738 16.5114 139.528 16.8105 139.259 17.0797C138.99 17.3489 138.691 17.5582 138.332 17.6779C137.973 17.8274 137.584 17.8872 137.166 17.8872ZM137.166 17.2292C137.584 17.2292 137.973 17.1395 138.272 16.9301C138.601 16.7507 138.841 16.4815 139.02 16.1226C139.199 15.7935 139.289 15.4047 139.289 14.9561C139.289 14.5074 139.199 14.1485 139.02 13.7896C138.841 13.4307 138.601 13.1914 138.272 12.982C137.943 12.8026 137.584 12.6829 137.166 12.6829C136.747 12.6829 136.388 12.7726 136.059 12.982C135.73 13.1615 135.491 13.4307 135.311 13.7896C135.132 14.1485 135.042 14.5074 135.042 14.9561C135.042 15.4047 135.132 15.7636 135.311 16.1226C135.491 16.4516 135.73 16.7208 136.059 16.9301C136.358 17.1096 136.747 17.2292 137.166 17.2292Z" fill="#171717"/>
<path id="Vector_43" d="M141.982 17.768H141.234V12.1748H141.982V17.768ZM141.892 15.1957V14.5377H145.123V15.1957H141.892ZM145.033 17.768V12.1748H145.781V17.768H145.033Z" fill="#171717"/>
<path id="Vector_44" d="M146.738 19.1148V17.1106H152.361V19.1148H151.644V17.2901L152.182 17.7687H147.217L147.456 17.32V19.1148H146.738ZM147.037 17.4695V17.1405H147.277C147.426 17.1405 147.546 17.0507 147.636 16.8413C147.725 16.6319 147.785 16.3328 147.845 15.914L148.264 12.2046H151.763V17.4396H151.015V12.3542L151.464 12.8627H148.443L148.982 12.3542L148.533 16.0037C148.503 16.3328 148.443 16.602 148.353 16.8114C148.264 17.0208 148.144 17.2003 147.994 17.2901C147.845 17.4097 147.636 17.4695 147.366 17.4695H147.037Z" fill="#171717"/>
</g>
</g>
</g>
<g id="Group_5">
<g id="Group_6">
<g id="Group_7">
<g id="Group_8">
<path id="Vector_45" d="M30.9264 51.5416L26.1109 51.392C26.1109 51.0928 26.081 49.298 26.0511 48.9689C25.9315 46.845 25.6922 44.8706 25.3034 43.0458C24.8547 43.0757 24.4061 43.0757 23.9574 43.0757C13.2497 43.0757 3.94768 35.8364 1.31561 25.486L0.6875 22.9732L3.25975 22.5245C3.67849 22.4646 13.6385 20.8493 21.5945 27.1911C24.8248 29.7937 27.2475 33.2638 28.8028 37.6313C36.6991 35.5074 42.5315 28.2681 42.5315 19.7125C42.5315 15.3151 40.9762 11.0672 38.1646 7.74669C37.8057 7.32788 37.1477 6.58002 36.7888 6.22105L40.1985 2.81079C40.6472 3.25951 41.4248 4.09712 41.8436 4.63558C45.4028 8.85353 47.347 14.2082 47.347 19.7125C47.347 30.4817 40.0191 39.5757 30.089 42.2681C30.5077 44.2723 30.747 46.4262 30.8965 48.6997C30.8965 49.1185 30.9563 51.0629 30.9264 51.5416ZM6.93868 27.1014C9.81003 33.7723 16.4201 38.2595 23.8976 38.2894C22.6414 35.2381 20.8767 32.7851 18.5736 30.9604C14.5956 27.7894 9.89976 27.1313 6.93868 27.1014Z" fill="#E83E6B"/>
</g>
</g>
<g id="Group_9">
<g id="Group_10">
<path id="Vector_46" d="M27.3677 24.7393C22.5223 24.7393 18.5742 20.7906 18.5742 15.9444C18.5742 11.0982 22.5522 7.17944 27.3677 7.17944C32.1832 7.17944 36.1613 11.1282 36.1613 15.9743C36.1613 20.8205 32.2131 24.7393 27.3677 24.7393ZM27.3677 11.9957C25.1843 11.9957 23.3897 13.7906 23.3897 15.9743C23.3897 18.1581 25.1843 19.9529 27.3677 19.9529C29.5512 19.9529 31.3458 18.1581 31.3458 15.9743C31.3458 13.7906 29.5811 11.9957 27.3677 11.9957Z" fill="#E83E6B"/>
</g>
</g>
<g id="Group_11">
<g id="Group_12">
<path id="Vector_47" d="M27.9957 56C12.5622 56 0 43.4359 0 28C0 12.5641 12.5622 0 27.9957 0C43.4292 0 55.9914 12.5641 55.9914 28C55.9914 43.4359 43.4292 56 27.9957 56ZM27.9957 4.81624C15.1942 4.81624 4.78559 15.2265 4.78559 28.0299C4.78559 40.8333 15.1942 51.2436 27.9957 51.2436C40.7971 51.2436 51.2058 40.8333 51.2058 28.0299C51.2058 15.2265 40.7971 4.81624 27.9957 4.81624Z" fill="#E83E6B"/>
</g>
</g>
</g>
</g>
</g>
</g>
</svg>
