<svg width="54" height="53" viewBox="0 0 54 53" fill="none" xmlns="http://www.w3.org/2000/svg">
<g id="Frame 1321315576">
<g id="Group">
<g id="Group_2">
<path id="Vector" d="M0.438965 4.16884L14.0467 17.7766C18.9394 22.6693 18.9394 30.6199 14.0467 35.5126L0.438965 49.1203L4.26137 52.9427L17.8691 39.335C22.7618 34.4423 30.7124 34.4423 35.6051 39.335L49.2129 52.9427L53.0353 49.1203L39.4275 35.5126C34.5348 30.6199 34.5348 22.6693 39.4275 17.7766L53.0353 4.16884L49.2129 0.346436L35.6051 13.9542C30.7124 18.8469 22.7618 18.8469 17.8691 13.9542L4.26137 0.346436L0.438965 4.16884Z" fill="#AFDFFF"/>
</g>
<g id="Group_3">
<path id="Vector_2" d="M50.5893 24.1971H2.88574V28.9369H50.5893V24.1971Z" fill="#AFDFFF"/>
</g>
<g id="Group_4">
<path id="Vector_3" d="M29.0308 2.79211H24.291V50.4957H29.0308V2.79211Z" fill="#AFDFFF"/>
</g>
</g>
</g>
</svg>
