<svg width="48" height="48" viewBox="0 0 48 48" fill="none" xmlns="http://www.w3.org/2000/svg">
<g id="Frame 1321315405">
<g id="Group">
<path id="Vector" d="M22.7024 24.4041L12.3221 14.0238C-1.56514 10.0026 -3.71601 16.876 10.779 24.4041C-3.71601 31.979 -1.56514 38.8524 12.3221 34.7844L22.7024 24.4041Z" fill="#FEA3B7"/>
<path id="Vector_2" d="M24.3858 22.7673L34.7662 12.387C38.7874 -1.50019 31.9139 -3.65107 24.3858 10.844C16.811 -3.65107 9.93755 -1.50019 14.0055 12.387L24.3858 22.7673Z" fill="#FEA3B7"/>
<path id="Vector_3" d="M24.3855 26.0873L14.0051 36.4676C9.98391 50.3548 16.8574 52.5057 24.3855 38.0106C31.9603 52.5057 38.8337 50.3548 34.7658 36.4676L24.3855 26.0873Z" fill="#FEA3B7"/>
<path id="Vector_4" d="M37.9926 24.4038C52.4876 16.8289 50.3367 9.95549 36.4495 14.0235L26.0225 24.4038L36.4028 34.7841C50.3367 38.8521 52.4408 31.9786 37.9926 24.4038Z" fill="#FEA3B7"/>
</g>
</g>
</svg>
