<svg width="56" height="56" viewBox="0 0 56 56" fill="none" xmlns="http://www.w3.org/2000/svg">
<path d="M3.97148 42.9461C3.86593 43.7905 3.65483 47.168 5.8713 49.2789C8.08777 51.4954 11.4653 51.2843 12.2041 51.1787C18.2202 50.7566 24.1308 41.0463 27.5083 27.5364C14.1039 31.0194 4.39367 36.8245 3.97148 42.9461Z" fill="black"/>
<path d="M43.0236 3.9998C43.8679 3.89426 47.2454 3.68315 49.3563 5.89962C51.5728 8.11609 51.3617 11.4936 51.2562 12.2324C50.834 18.2485 41.1237 24.1591 27.6138 27.5366C31.0968 14.0267 36.9019 4.42199 43.0236 3.9998Z" fill="black"/>
<path d="M43.0236 51.1788C43.8679 51.2843 47.2454 51.4954 49.3563 49.279C51.5728 47.0625 51.3617 43.685 51.2562 42.9462C50.834 36.93 41.1237 31.0194 27.6138 27.642C31.0968 41.0463 36.9019 50.7566 43.0236 51.1788Z" fill="black"/>
<path d="M3.97148 12.2323C3.86593 11.3879 3.65483 8.01042 5.8713 5.8995C8.08777 3.68303 11.4653 3.89413 12.2041 3.99968C18.2202 4.42186 24.1308 14.1321 27.5083 27.642C14.1039 24.159 4.39367 18.354 3.97148 12.2323Z" fill="black"/>
</svg>
