<svg width="56" height="56" viewBox="0 0 56 56" fill="none" xmlns="http://www.w3.org/2000/svg">
<path d="M1.43896 5.16884L15.0467 18.7766C19.9394 23.6693 19.9394 31.6199 15.0467 36.5126L1.43896 50.1203L5.26137 53.9427L18.8691 40.335C23.7618 35.4423 31.7124 35.4423 36.6051 40.335L50.2129 53.9427L54.0353 50.1203L40.4275 36.5126C35.5348 31.6199 35.5348 23.6693 40.4275 18.7766L54.0353 5.16884L50.2129 1.34644L36.6051 14.9542C31.7124 19.8469 23.7618 19.8469 18.8691 14.9542L5.26137 1.34644L1.43896 5.16884Z" fill="black"/>
<path d="M51.5893 25.1971H3.88574V29.9369H51.5893V25.1971Z" fill="black"/>
<path d="M30.0308 3.79211H25.291V51.4957H30.0308V3.79211Z" fill="black"/>
</svg>
