<svg width="49" height="49" viewBox="0 0 49 49" fill="none" xmlns="http://www.w3.org/2000/svg">
<g id="Frame 1321315404">
<g id="Group">
<g id="Group_2">
<g id="Group_3">
<path id="Vector" d="M0.971481 39.9461C0.865935 40.7905 0.65483 44.168 2.8713 46.2789C5.08777 48.4954 8.46525 48.2843 9.20408 48.1787C15.2202 47.7566 21.1308 38.0463 24.5083 24.5364C11.1039 28.0194 1.39367 33.8245 0.971481 39.9461Z" fill="#FEA3B7"/>
</g>
<g id="Group_4">
<path id="Vector_2" d="M40.0236 0.999801C40.8679 0.894255 44.2454 0.68315 46.3563 2.89962C48.5728 5.11609 48.3617 8.49357 48.2562 9.2324C47.834 15.2485 38.1237 21.1591 24.6138 24.5366C28.0968 11.0267 33.9019 1.42199 40.0236 0.999801Z" fill="#FEA3B7"/>
</g>
</g>
<g id="Group_5">
<g id="Group_6">
<path id="Vector_3" d="M40.0236 48.1788C40.8679 48.2843 44.2454 48.4954 46.3563 46.279C48.5728 44.0625 48.3617 40.685 48.2562 39.9462C47.834 33.93 38.1237 28.0194 24.6138 24.642C28.0968 38.0463 33.9019 47.7566 40.0236 48.1788Z" fill="#FEA3B7"/>
</g>
<g id="Group_7">
<path id="Vector_4" d="M0.971481 9.23227C0.865935 8.3879 0.65483 5.01042 2.8713 2.8995C5.08777 0.683028 8.46525 0.894133 9.20408 0.999679C15.2202 1.42186 21.1308 11.1321 24.5083 24.642C11.1039 21.159 1.39367 15.354 0.971481 9.23227Z" fill="#FEA3B7"/>
</g>
</g>
</g>
</g>
</svg>
