<svg width="56" height="56" viewBox="0 0 56 56" fill="none" xmlns="http://www.w3.org/2000/svg">
<g clip-path="url(#clip0_1_1710)">
<path d="M25.7024 27.4041L15.3221 17.0238C1.43486 13.0026 -0.716009 19.876 13.779 27.4041C-0.716009 34.979 1.43486 41.8524 15.3221 37.7844L25.7024 27.4041Z" fill="black"/>
<path d="M27.3858 25.7673L37.7662 15.387C41.7874 1.49981 34.9139 -0.651072 27.3858 13.844C19.811 -0.651072 12.9375 1.49981 17.0055 15.387L27.3858 25.7673Z" fill="black"/>
<path d="M27.3855 29.0873L17.0051 39.4676C12.9839 53.3548 19.8574 55.5057 27.3855 41.0106C34.9603 55.5057 41.8337 53.3548 37.7658 39.4676L27.3855 29.0873Z" fill="black"/>
<path d="M40.9926 27.4038C55.4876 19.8289 53.3367 12.9555 39.4495 17.0235L29.0225 27.4038L39.4028 37.7841C53.3367 41.8521 55.4408 34.9786 40.9926 27.4038Z" fill="black"/>
</g>
<defs>
<clipPath id="clip0_1_1710">
<rect width="56" height="56" fill="white"/>
</clipPath>
</defs>
</svg>
