<svg width="56" height="56" viewBox="0 0 56 56" fill="none" xmlns="http://www.w3.org/2000/svg">
<path d="M37.2466 24.8993C42.4745 19.6715 44.8568 12.8554 43.9965 7.23047L54.3199 17.5539C53.592 23.5758 50.945 29.3993 46.3127 34.0316C41.6804 38.6638 35.857 41.3109 29.835 42.0388L19.5116 31.7154C25.2027 32.5095 32.0188 30.1272 37.2466 24.8993Z" fill="black"/>
<path d="M0.916497 37.4732C1.64443 31.4513 4.29143 25.6278 8.92372 20.9955C13.556 16.3632 19.3795 13.7162 25.4014 12.9883L35.7248 23.3117C30.0999 22.4514 23.2838 24.8337 18.0559 30.0616C12.8281 35.2894 10.4458 42.1055 11.3061 47.7304L0.916497 37.4732Z" fill="black"/>
</svg>
