<svg width="45" height="45" viewBox="0 0 45 45" fill="none" xmlns="http://www.w3.org/2000/svg">
<g id="Frame 1321315576">
<path id="Vector" d="M39.7182 8.2063L37.1973 5.68538C32.5156 10.3671 24.4726 7.06588 24.4726 0.403442H20.9313C20.9313 7.06588 12.8884 10.3671 8.20667 5.68538L5.68575 8.2063C10.3675 12.888 7.06625 20.931 0.403809 20.931V24.4723C7.06625 24.4723 10.3675 32.5152 5.68575 37.1969L8.20667 39.7178C12.8884 35.0361 20.9313 38.3373 20.9313 44.9998H24.4726C24.4726 38.3373 32.5156 35.0361 37.1973 39.7178L39.7182 37.1969C35.0365 32.5152 38.3377 24.4723 45.0002 24.4723V20.931C38.3377 20.931 34.9765 12.888 39.7182 8.2063Z" fill="#AFDFFF"/>
</g>
</svg>
