<svg width="55" height="54" viewBox="0 0 55 54" fill="none" xmlns="http://www.w3.org/2000/svg">
<g id="Frame 1321315575">
<g id="Group">
<path id="Vector" d="M37.2466 23.8993C42.4745 18.6715 44.8568 11.8554 43.9965 6.23047L54.3199 16.5539C53.592 22.5758 50.945 28.3993 46.3127 33.0316C41.6804 37.6638 35.857 40.3109 29.835 41.0388L19.5116 30.7154C25.2027 31.5095 32.0188 29.1272 37.2466 23.8993Z" fill="#FEA3B7"/>
<path id="Vector_2" d="M0.916496 36.4732C1.64443 30.4513 4.29143 24.6278 8.92372 19.9955C13.556 15.3632 19.3795 12.7162 25.4014 11.9883L35.7248 22.3117C30.0999 21.4514 23.2838 23.8337 18.0559 29.0616C12.8281 34.2894 10.4458 41.1055 11.3061 46.7304L0.916496 36.4732Z" fill="#FEA3B7"/>
</g>
</g>
</svg>
