<svg width="56" height="56" viewBox="0 0 56 56" fill="none" xmlns="http://www.w3.org/2000/svg">
<path d="M30.4543 23.6184C33.5811 20.4915 33.4585 15.4027 30.209 12.3984C27.3887 9.82333 23.0356 9.70071 20.0926 12.1532C17.7015 14.1151 16.8431 17.0581 17.3949 19.8171C17.8241 21.7178 17.2723 23.6184 15.9234 25.0286L15.6169 25.3351C14.268 26.684 12.3061 27.2358 10.4054 26.8066C7.70771 26.1935 4.70345 27.1132 2.74149 29.5043C0.35034 32.4472 0.411652 36.8004 2.98673 39.6207C5.99099 42.9315 11.0798 42.9928 14.2067 39.8659C16.1687 37.904 16.8431 35.1449 16.2913 32.5699C15.8621 30.7305 16.4753 28.8299 17.8241 27.5423L18.1307 27.2358C19.4795 25.8869 21.3802 25.2738 23.1582 25.703C25.7333 26.2548 28.4923 25.5804 30.4543 23.6184Z" fill="black"/>
<path d="M41.3678 14.6059C38.9766 16.5679 38.1183 19.5108 38.6701 22.2698C39.0992 24.1705 38.5474 26.0711 37.1986 27.4813L36.892 27.7879C35.5432 29.1367 33.5812 29.6885 31.6806 29.2593C28.9829 28.6462 25.9786 29.5659 24.0166 31.957C21.6255 34.9 21.6868 39.2531 24.2619 42.0734C27.2661 45.3842 32.355 45.4456 35.4819 42.3187C37.4438 40.3567 38.1183 37.5977 37.5665 35.0226C37.1373 33.1833 37.7504 31.2826 39.0992 29.9951L39.4058 29.6885C40.7547 28.3397 42.6553 27.7265 44.4333 28.1557C46.9471 28.7688 49.7061 28.0331 51.7294 26.0711C54.8563 22.9443 54.7337 17.8554 51.4842 14.8511C48.6638 12.3374 44.3107 12.2148 41.3678 14.6059Z" fill="black"/>
</svg>
