<svg width="49" height="49" viewBox="0 0 49 49" fill="none" xmlns="http://www.w3.org/2000/svg">
<g id="Frame 1321315405">
<path id="Vector" d="M46.071 21.9894L36.1999 22.8029C33.5422 23.0199 32.1863 19.7114 34.1931 17.9758L41.7321 11.5216C42.9253 10.4911 43.0338 8.64701 41.8948 7.50803C40.7558 6.36905 38.9117 6.47752 37.8812 7.67074L31.427 15.2097C29.6914 17.2165 26.3829 15.8606 26.5999 13.2029L27.4134 3.33177C27.5219 1.75889 26.2745 0.402954 24.7016 0.402954C23.1287 0.402954 21.827 1.75889 21.9897 3.33177L22.8033 13.2029C23.0202 15.8606 19.7118 17.2165 17.9762 15.2097L11.5219 7.67074C10.4914 6.47752 8.64738 6.36905 7.5084 7.50803C6.36941 8.64701 6.47788 10.4911 7.6711 11.5216L15.2101 17.9758C17.2169 19.7114 15.8609 23.0199 13.2033 22.8029L3.33213 21.9894C1.75925 21.8809 0.40332 23.1283 0.40332 24.7012C0.40332 26.2741 1.75925 27.5758 3.33213 27.4131L13.2033 26.5995C15.8609 26.3826 17.2169 29.691 15.2101 31.4266L7.6711 37.8809C6.47788 38.9114 6.36941 40.7554 7.5084 41.8944C8.64738 43.0334 10.4914 42.9249 11.5219 41.7317L17.9762 34.1927C19.7118 32.186 23.0202 33.5419 22.8033 36.1995L21.9897 46.0707C21.8813 47.6435 23.1287 48.9995 24.7016 48.9995C26.2745 48.9995 27.5762 47.6435 27.4134 46.0707L26.5999 36.1995C26.3829 33.5419 29.6914 32.186 31.427 34.1927L37.8812 41.7317C38.9117 42.9249 40.7558 43.0334 41.8948 41.8944C43.0338 40.7554 42.9253 38.9114 41.7321 37.8809L34.1931 31.4809C32.1863 29.7453 33.5422 26.4368 36.1999 26.6538L46.071 27.4673C47.6439 27.5758 48.9998 26.3283 48.9998 24.7555C48.9998 23.1283 47.6439 21.8809 46.071 21.9894Z" fill="#FEA3B7"/>
</g>
</svg>
