<svg width="56" height="56" viewBox="0 0 56 56" fill="none" xmlns="http://www.w3.org/2000/svg">
<path d="M49.071 24.9894L39.1999 25.8029C36.5422 26.0199 35.1863 22.7114 37.1931 20.9758L44.7321 14.5216C45.9253 13.4911 46.0338 11.647 44.8948 10.508C43.7558 9.36905 41.9117 9.47752 40.8812 10.6707L34.427 18.2097C32.6914 20.2165 29.3829 18.8606 29.5999 16.2029L30.4134 6.33177C30.5219 4.75889 29.2745 3.40295 27.7016 3.40295C26.1287 3.40295 24.827 4.75889 24.9897 6.33177L25.8033 16.2029C26.0202 18.8606 22.7118 20.2165 20.9762 18.2097L14.5219 10.6707C13.4914 9.47752 11.6474 9.36905 10.5084 10.508C9.36941 11.647 9.47788 13.4911 10.6711 14.5216L18.2101 20.9758C20.2169 22.7114 18.8609 26.0199 16.2033 25.8029L6.33213 24.9894C4.75925 24.8809 3.40332 26.1283 3.40332 27.7012C3.40332 29.2741 4.75925 30.5758 6.33213 30.4131L16.2033 29.5995C18.8609 29.3826 20.2169 32.691 18.2101 34.4266L10.6711 40.8809C9.47788 41.9114 9.36941 43.7554 10.5084 44.8944C11.6474 46.0334 13.4914 45.9249 14.5219 44.7317L20.9762 37.1927C22.7118 35.186 26.0202 36.5419 25.8033 39.1995L24.9897 49.0707C24.8813 50.6435 26.1287 51.9995 27.7016 51.9995C29.2745 51.9995 30.5762 50.6435 30.4134 49.0707L29.5999 39.1995C29.3829 36.5419 32.6914 35.186 34.427 37.1927L40.8812 44.7317C41.9117 45.9249 43.7558 46.0334 44.8948 44.8944C46.0338 43.7554 45.9253 41.9114 44.7321 40.8809L37.1931 34.4809C35.1863 32.7453 36.5422 29.4368 39.1999 29.6538L49.071 30.4673C50.6439 30.5758 51.9998 29.3283 51.9998 27.7555C51.9998 26.1283 50.6439 24.8809 49.071 24.9894Z" fill="black"/>
</svg>
