<svg width="49" height="49" viewBox="0 0 49 49" fill="none" xmlns="http://www.w3.org/2000/svg">
<g id="Frame 1321315404">
<g id="Group 1321314801">
<path id="Rectangle 41244" d="M20.1012 6.29628C19.3529 3.30282 21.6169 0.403076 24.7025 0.403076C27.7881 0.403076 30.0521 3.30283 29.3038 6.29628L24.7025 24.7014L20.1012 6.29628Z" fill="#AFDFFF"/>
<path id="Rectangle 41252" d="M33.4987 10.0349C34.93 7.64948 38.2219 7.24423 40.1889 9.21128C42.156 11.1783 41.7508 14.4703 39.3653 15.9015L24.6988 24.7014L33.4987 10.0349Z" fill="#AFDFFF"/>
<path id="Rectangle 41247" d="M20.1012 43.1066C19.3529 46.1 21.6169 48.9998 24.7025 48.9998C27.7881 48.9998 30.0521 46.1 29.3038 43.1065L24.7025 24.7014L20.1012 43.1066Z" fill="#AFDFFF"/>
<path id="Rectangle 41253" d="M10.036 33.5013C7.65058 34.9325 7.24532 38.2245 9.21238 40.1915C11.1794 42.1586 14.4714 41.7533 15.9026 39.3679L24.7025 24.7014L10.036 33.5013Z" fill="#AFDFFF"/>
<path id="Rectangle 41246" d="M43.1068 20.1004C46.1003 19.352 49 21.6161 49 24.7017C49 27.7872 46.1002 30.0513 43.1068 29.3029L24.7017 24.7017L43.1068 20.1004Z" fill="#AFDFFF"/>
<path id="Rectangle 41254" d="M39.3693 33.5013C41.7547 34.9325 42.1599 38.2245 40.1929 40.1915C38.2258 42.1586 34.9339 41.7533 33.5027 39.3679L24.7027 24.7014L39.3693 33.5013Z" fill="#AFDFFF"/>
<path id="Rectangle 41251" d="M6.2975 20.1004C3.30404 19.352 0.404297 21.6161 0.404297 24.7017C0.404297 27.7872 3.30405 30.0513 6.29751 29.3029L24.7026 24.7017L6.2975 20.1004Z" fill="#AFDFFF"/>
<path id="Rectangle 41255" d="M15.9066 10.0349C14.4753 7.64948 11.1834 7.24423 9.21633 9.21128C7.24927 11.1783 7.65452 14.4703 10.0399 15.9015L24.7065 24.7014L15.9066 10.0349Z" fill="#AFDFFF"/>
</g>
</g>
</svg>
