<svg width="53" height="53" viewBox="0 0 53 53" fill="none" xmlns="http://www.w3.org/2000/svg">
<g id="Frame 1321315575">
<g id="Group">
<path id="Vector" d="M29.4543 22.6184C32.5811 19.4915 32.4585 14.4027 29.209 11.3984C26.3887 8.82333 22.0356 8.70071 19.0926 11.1532C16.7015 13.1151 15.8431 16.0581 16.3949 18.8171C16.8241 20.7178 16.2723 22.6184 14.9234 24.0286L14.6169 24.3351C13.268 25.684 11.3061 26.2358 9.40542 25.8066C6.70771 25.1935 3.70345 26.1132 1.74149 28.5043C-0.64966 31.4472 -0.588348 35.8004 1.98673 38.6207C4.99099 41.9315 10.0798 41.9928 13.2067 38.8659C15.1687 36.904 15.8431 34.1449 15.2913 31.5699C14.8621 29.7305 15.4753 27.8299 16.8241 26.5423L17.1307 26.2358C18.4795 24.8869 20.3802 24.2738 22.1582 24.703C24.7333 25.2548 27.4923 24.5804 29.4543 22.6184Z" fill="#AFDFFF"/>
<path id="Vector_2" d="M40.3678 13.6059C37.9766 15.5679 37.1183 18.5108 37.6701 21.2698C38.0992 23.1705 37.5474 25.0711 36.1986 26.4813L35.892 26.7879C34.5432 28.1367 32.5812 28.6885 30.6806 28.2593C27.9829 27.6462 24.9786 28.5659 23.0166 30.957C20.6255 33.9 20.6868 38.2531 23.2619 41.0734C26.2661 44.3842 31.355 44.4456 34.4819 41.3187C36.4438 39.3567 37.1183 36.5977 36.5665 34.0226C36.1373 32.1833 36.7504 30.2826 38.0992 28.9951L38.4058 28.6885C39.7547 27.3397 41.6553 26.7265 43.4333 27.1557C45.9471 27.7688 48.7061 27.0331 50.7294 25.0711C53.8563 21.9443 53.7337 16.8554 50.4842 13.8511C47.6638 11.3374 43.3107 11.2148 40.3678 13.6059Z" fill="#AFDFFF"/>
</g>
</g>
</svg>
