<svg width="56" height="56" viewBox="0 0 56 56" fill="none" xmlns="http://www.w3.org/2000/svg">
<path d="M23.1012 9.29628C22.3529 6.30282 24.6169 3.40308 27.7025 3.40308V3.40308C30.7881 3.40308 33.0521 6.30283 32.3038 9.29628L27.7025 27.7014L23.1012 9.29628Z" fill="black"/>
<path d="M36.4987 13.0349C37.93 10.6495 41.2219 10.2442 43.1889 12.2113V12.2113C45.156 14.1783 44.7508 17.4703 42.3653 18.9015L27.6988 27.7014L36.4987 13.0349Z" fill="black"/>
<path d="M23.1012 46.1066C22.3529 49.1 24.6169 51.9998 27.7025 51.9998V51.9998C30.7881 51.9998 33.0521 49.1 32.3038 46.1065L27.7025 27.7014L23.1012 46.1066Z" fill="black"/>
<path d="M13.036 36.5013C10.6506 37.9325 10.2453 41.2245 12.2124 43.1915V43.1915C14.1794 45.1586 17.4714 44.7533 18.9026 42.3679L27.7025 27.7014L13.036 36.5013Z" fill="black"/>
<path d="M46.1068 23.1004C49.1003 22.352 52 24.6161 52 27.7017V27.7017C52 30.7872 49.1002 33.0513 46.1068 32.3029L27.7017 27.7017L46.1068 23.1004Z" fill="black"/>
<path d="M42.3693 36.5013C44.7547 37.9325 45.1599 41.2245 43.1929 43.1915V43.1915C41.2258 45.1586 37.9339 44.7533 36.5027 42.3679L27.7027 27.7014L42.3693 36.5013Z" fill="black"/>
<path d="M9.2975 23.1004C6.30404 22.352 3.4043 24.6161 3.4043 27.7017V27.7017C3.4043 30.7872 6.30405 33.0513 9.29751 32.3029L27.7026 27.7017L9.2975 23.1004Z" fill="black"/>
<path d="M18.9066 13.0349C17.4753 10.6495 14.1834 10.2442 12.2163 12.2113V12.2113C10.2493 14.1783 10.6545 17.4703 13.0399 18.9015L27.7065 27.7014L18.9066 13.0349Z" fill="black"/>
</svg>
