<svg width="56" height="56" viewBox="0 0 56 56" fill="none" xmlns="http://www.w3.org/2000/svg">
<path d="M44.7182 13.2063L42.1973 10.6854C37.5156 15.3671 29.4726 12.0659 29.4726 5.40344H25.9313C25.9313 12.0659 17.8884 15.3671 13.2067 10.6854L10.6858 13.2063C15.3675 17.888 12.0662 25.931 5.40381 25.931V29.4723C12.0662 29.4723 15.3675 37.5152 10.6858 42.1969L13.2067 44.7179C17.8884 40.0361 25.9313 43.3373 25.9313 49.9998H29.4726C29.4726 43.3373 37.5156 40.0361 42.1973 44.7179L44.7182 42.1969C40.0365 37.5152 43.3377 29.4723 50.0002 29.4723V25.931C43.3377 25.931 39.9765 17.888 44.7182 13.2063Z" fill="black"/>
</svg>
