<svg width="44" height="44" viewBox="0 0 44 44" fill="none" xmlns="http://www.w3.org/2000/svg">
<g clip-path="url(#clip0_1_7257)">
<path d="M20.1952 21.5318L12.0392 13.3758C1.12788 10.2163 -0.562091 15.6169 10.8269 21.5318C-0.562091 27.4835 1.12788 32.884 12.0392 29.6878L20.1952 21.5318Z" fill="#FEA3B7"/>
<path d="M21.5183 20.2458L29.6743 12.0898C32.8338 1.17842 27.4332 -0.511556 21.5183 10.8774C15.5666 -0.511556 10.1661 1.17842 13.3623 12.0898L21.5183 20.2458Z" fill="#FEA3B7"/>
<path d="M21.5179 22.8542L13.3619 31.0102C10.2024 41.9216 15.603 43.6116 21.5179 32.2226C27.4696 43.6116 32.8701 41.9216 29.6739 31.0102L21.5179 22.8542Z" fill="#FEA3B7"/>
<path d="M32.2088 21.5316C43.5978 15.5799 41.9078 10.1794 30.9964 13.3756L22.8037 21.5316L30.9597 29.6876C41.9078 32.8838 43.561 27.4832 32.2088 21.5316Z" fill="#FEA3B7"/>
</g>
<defs>
<clipPath id="clip0_1_7257">
<rect width="44" height="44" fill="white"/>
</clipPath>
</defs>
</svg>
